%TF.GenerationSoftware,KiCad,Pcbnew,9.0.0*%
%TF.CreationDate,2025-10-19T17:28:43-05:00*%
%TF.ProjectId,M_dulo Patas,4df36475-6c6f-4205-9061-7461732e6b69,rev?*%
%TF.SameCoordinates,Original*%
%TF.FileFunction,Copper,L2,Bot*%
%TF.FilePolarity,Positive*%
%FSLAX46Y46*%
G04 Gerber Fmt 4.6, Leading zero omitted, Abs format (unit mm)*
G04 Created by KiCad (PCBNEW 9.0.0) date 2025-10-19 17:28:43*
%MOMM*%
%LPD*%
G01*
G04 APERTURE LIST*
%TA.AperFunction,ComponentPad*%
%ADD10O,1.700000X1.700000*%
%TD*%
%TA.AperFunction,ComponentPad*%
%ADD11R,1.700000X1.700000*%
%TD*%
%TA.AperFunction,Conductor*%
%ADD12C,1.400000*%
%TD*%
%TA.AperFunction,Conductor*%
%ADD13C,0.900000*%
%TD*%
G04 APERTURE END LIST*
D10*
%TO.P,ESPR1,8,Pin_8*%
%TO.N,unconnected-(ESPR1-Pin_8-Pad8)*%
X40780000Y-58500000D03*
%TO.P,ESPR1,7,Pin_7*%
%TO.N,unconnected-(ESPR1-Pin_7-Pad7)*%
X38240000Y-58500000D03*
%TO.P,ESPR1,6,Pin_6*%
%TO.N,unconnected-(ESPR1-Pin_6-Pad6)*%
X35700000Y-58500000D03*
%TO.P,ESPR1,5,Pin_5*%
%TO.N,unconnected-(ESPR1-Pin_5-Pad5)*%
X33160000Y-58500000D03*
%TO.P,ESPR1,4,Pin_4*%
%TO.N,unconnected-(ESPR1-Pin_4-Pad4)*%
X30620000Y-58500000D03*
%TO.P,ESPR1,3,Pin_3*%
%TO.N,unconnected-(ESPR1-Pin_3-Pad3)*%
X28080000Y-58500000D03*
%TO.P,ESPR1,2,Pin_2*%
%TO.N,GPIO6*%
X25540000Y-58500000D03*
D11*
%TO.P,ESPR1,1,Pin_1*%
%TO.N,GPIO5*%
X23000000Y-58500000D03*
%TD*%
D10*
%TO.P,ESPL2,8,Pin_8*%
%TO.N,V+*%
X23000000Y-43300000D03*
%TO.P,ESPL2,7,Pin_7*%
%TO.N,GND*%
X25540000Y-43300000D03*
%TO.P,ESPL2,6,Pin_6*%
%TO.N,unconnected-(ESPL2-Pin_6-Pad6)*%
X28080000Y-43300000D03*
%TO.P,ESPL2,5,Pin_5*%
%TO.N,unconnected-(ESPL2-Pin_5-Pad5)*%
X30620000Y-43300000D03*
%TO.P,ESPL2,4,Pin_4*%
%TO.N,unconnected-(ESPL2-Pin_4-Pad4)*%
X33160000Y-43300000D03*
%TO.P,ESPL2,3,Pin_3*%
%TO.N,unconnected-(ESPL2-Pin_3-Pad3)*%
X35700000Y-43300000D03*
%TO.P,ESPL2,2,Pin_2*%
%TO.N,GPIO1*%
X38240000Y-43300000D03*
D11*
%TO.P,ESPL2,1,Pin_1*%
%TO.N,GPIO0*%
X40780000Y-43300000D03*
%TD*%
D10*
%TO.P,SERVO3,3,Pin_3*%
%TO.N,GND*%
X17800000Y-37500000D03*
%TO.P,SERVO3,2,Pin_2*%
%TO.N,V+*%
X17800000Y-40040000D03*
D11*
%TO.P,SERVO3,1,Pin_1*%
%TO.N,GPIO5*%
X17800000Y-42580000D03*
%TD*%
%TO.P,SUP1,1,Pin_1*%
%TO.N,GND*%
X41800000Y-16260000D03*
D10*
%TO.P,SUP1,2,Pin_2*%
%TO.N,COM*%
X41800000Y-18800000D03*
%TD*%
D11*
%TO.P,SUP2,1,Pin_1*%
%TO.N,COM*%
X32300000Y-18840000D03*
D10*
%TO.P,SUP2,2,Pin_2*%
%TO.N,VCC*%
X32300000Y-16300000D03*
%TD*%
D11*
%TO.P,SERVO4,1,Pin_1*%
%TO.N,GPIO6*%
X17800000Y-30980000D03*
D10*
%TO.P,SERVO4,2,Pin_2*%
%TO.N,V+*%
X17800000Y-28440000D03*
%TO.P,SERVO4,3,Pin_3*%
%TO.N,GND*%
X17800000Y-25900000D03*
%TD*%
D11*
%TO.P,SUP3,1,Pin_1*%
%TO.N,V+*%
X16060000Y-16300000D03*
D10*
%TO.P,SUP3,2,Pin_2*%
%TO.N,VCC*%
X18600000Y-16300000D03*
%TD*%
D11*
%TO.P,SERVO1,1,Pin_1*%
%TO.N,GPIO0*%
X46200000Y-42880000D03*
D10*
%TO.P,SERVO1,2,Pin_2*%
%TO.N,V+*%
X46200000Y-40340000D03*
%TO.P,SERVO1,3,Pin_3*%
%TO.N,GND*%
X46200000Y-37800000D03*
%TD*%
D11*
%TO.P,SERVO2,1,Pin_1*%
%TO.N,GPIO1*%
X46300000Y-30880000D03*
D10*
%TO.P,SERVO2,2,Pin_2*%
%TO.N,V+*%
X46300000Y-28340000D03*
%TO.P,SERVO2,3,Pin_3*%
%TO.N,GND*%
X46300000Y-25800000D03*
%TD*%
D12*
%TO.N,V+*%
X23000000Y-43300000D02*
X25340000Y-40960000D01*
X17800000Y-40040000D02*
X25340000Y-32500000D01*
X38360000Y-32500000D02*
X25340000Y-32500000D01*
X25340000Y-40960000D02*
X25340000Y-28440000D01*
D13*
%TO.N,GPIO1*%
X48900000Y-33480000D02*
X46300000Y-30880000D01*
X40678000Y-46200000D02*
X47400000Y-46200000D01*
X47400000Y-46200000D02*
X48900000Y-44700000D01*
X38240000Y-43300000D02*
X38240000Y-43762000D01*
X38240000Y-43762000D02*
X40678000Y-46200000D01*
X48900000Y-44700000D02*
X48900000Y-33480000D01*
%TO.N,GPIO6*%
X16299000Y-54801000D02*
X16299000Y-32481000D01*
X24501000Y-60001000D02*
X21499000Y-60001000D01*
X16299000Y-32481000D02*
X17800000Y-30980000D01*
X25540000Y-58962000D02*
X24501000Y-60001000D01*
X25540000Y-58500000D02*
X25540000Y-58962000D01*
X21499000Y-60001000D02*
X16299000Y-54801000D01*
%TO.N,GPIO5*%
X17800000Y-53300000D02*
X23000000Y-58500000D01*
X17800000Y-42580000D02*
X17800000Y-53300000D01*
%TO.N,GPIO0*%
X45780000Y-43300000D02*
X46200000Y-42880000D01*
X40780000Y-43300000D02*
X45780000Y-43300000D01*
D12*
%TO.N,V+*%
X46200000Y-40340000D02*
X38360000Y-32500000D01*
D13*
X25340000Y-32500000D02*
X25340000Y-28440000D01*
D12*
X46200000Y-28440000D02*
X46300000Y-28340000D01*
X17800000Y-28440000D02*
X46200000Y-28440000D01*
D13*
%TO.N,VCC*%
X18600000Y-16300000D02*
X32300000Y-16300000D01*
%TO.N,COM*%
X41760000Y-18840000D02*
X32300000Y-18840000D01*
X41800000Y-18800000D02*
X41760000Y-18840000D01*
%TO.N,V+*%
X39500000Y-28340000D02*
X43600000Y-28340000D01*
X18000000Y-21100000D02*
X16060000Y-19160000D01*
D12*
X16060000Y-16300000D02*
X16060000Y-19160000D01*
X16060000Y-19160000D02*
X25340000Y-28440000D01*
%TD*%
%TA.AperFunction,Conductor*%
%TO.N,GND*%
G36*
X51442539Y-12520185D02*
G01*
X51488294Y-12572989D01*
X51499500Y-12624500D01*
X51499500Y-61375500D01*
X51479815Y-61442539D01*
X51427011Y-61488294D01*
X51375500Y-61499500D01*
X12624500Y-61499500D01*
X12557461Y-61479815D01*
X12511706Y-61427011D01*
X12500500Y-61375500D01*
X12500500Y-15425321D01*
X14959500Y-15425321D01*
X14959500Y-17174678D01*
X14974032Y-17247735D01*
X14974033Y-17247739D01*
X14974034Y-17247740D01*
X15029399Y-17330601D01*
X15054388Y-17347298D01*
X15099194Y-17400907D01*
X15109500Y-17450401D01*
X15109500Y-19253620D01*
X15122389Y-19318416D01*
X15146024Y-19437243D01*
X15146026Y-19437247D01*
X15146027Y-19437251D01*
X15175705Y-19508901D01*
X15217675Y-19610227D01*
X15217680Y-19610236D01*
X15321697Y-19765907D01*
X15321700Y-19765911D01*
X22833609Y-27277819D01*
X22867094Y-27339142D01*
X22862110Y-27408834D01*
X22820238Y-27464767D01*
X22754774Y-27489184D01*
X22745928Y-27489500D01*
X18388368Y-27489500D01*
X18332073Y-27475985D01*
X18287317Y-27453181D01*
X18222445Y-27420127D01*
X18057701Y-27366598D01*
X18057699Y-27366597D01*
X18057698Y-27366597D01*
X17926271Y-27345781D01*
X17886611Y-27339500D01*
X17713389Y-27339500D01*
X17673728Y-27345781D01*
X17542302Y-27366597D01*
X17377552Y-27420128D01*
X17223211Y-27498768D01*
X17143256Y-27556859D01*
X17083072Y-27600586D01*
X17083070Y-27600588D01*
X17083069Y-27600588D01*
X16960588Y-27723069D01*
X16960588Y-27723070D01*
X16960586Y-27723072D01*
X16916859Y-27783256D01*
X16858768Y-27863211D01*
X16780128Y-28017552D01*
X16726597Y-28182302D01*
X16699500Y-28353389D01*
X16699500Y-28526610D01*
X16710759Y-28597701D01*
X16726598Y-28697701D01*
X16780127Y-28862445D01*
X16858768Y-29016788D01*
X16960586Y-29156928D01*
X17083072Y-29279414D01*
X17223212Y-29381232D01*
X17377555Y-29459873D01*
X17542299Y-29513402D01*
X17713389Y-29540500D01*
X17713390Y-29540500D01*
X17886610Y-29540500D01*
X17886611Y-29540500D01*
X18057701Y-29513402D01*
X18222445Y-29459873D01*
X18332073Y-29404014D01*
X18388368Y-29390500D01*
X24265500Y-29390500D01*
X24332539Y-29410185D01*
X24378294Y-29462989D01*
X24389500Y-29514500D01*
X24389500Y-32054927D01*
X24369815Y-32121966D01*
X24353181Y-32142608D01*
X17543933Y-38951855D01*
X17494572Y-38982104D01*
X17377554Y-39020127D01*
X17223212Y-39098767D01*
X17196385Y-39118259D01*
X17130578Y-39141738D01*
X17062525Y-39125912D01*
X17013830Y-39075806D01*
X16999500Y-39017940D01*
X16999500Y-32822519D01*
X17019185Y-32755480D01*
X17035819Y-32734838D01*
X17653838Y-32116819D01*
X17715161Y-32083334D01*
X17741519Y-32080500D01*
X18674676Y-32080500D01*
X18674677Y-32080499D01*
X18747740Y-32065966D01*
X18830601Y-32010601D01*
X18885966Y-31927740D01*
X18900500Y-31854674D01*
X18900500Y-30105326D01*
X18900500Y-30105323D01*
X18900499Y-30105321D01*
X18885967Y-30032264D01*
X18885966Y-30032260D01*
X18830601Y-29949399D01*
X18747740Y-29894034D01*
X18747739Y-29894033D01*
X18747735Y-29894032D01*
X18674677Y-29879500D01*
X18674674Y-29879500D01*
X16925326Y-29879500D01*
X16925323Y-29879500D01*
X16852264Y-29894032D01*
X16852260Y-29894033D01*
X16769399Y-29949399D01*
X16714033Y-30032260D01*
X16714032Y-30032264D01*
X16699500Y-30105321D01*
X16699500Y-31038480D01*
X16679815Y-31105519D01*
X16663181Y-31126161D01*
X15754888Y-32034453D01*
X15754887Y-32034454D01*
X15678222Y-32149192D01*
X15625421Y-32276667D01*
X15625418Y-32276677D01*
X15598500Y-32412004D01*
X15598500Y-32412007D01*
X15598500Y-54732006D01*
X15598500Y-54869994D01*
X15598500Y-54869996D01*
X15598499Y-54869996D01*
X15625418Y-55005322D01*
X15625421Y-55005332D01*
X15678222Y-55132807D01*
X15754887Y-55247545D01*
X21052454Y-60545112D01*
X21167192Y-60621777D01*
X21294667Y-60674578D01*
X21294672Y-60674580D01*
X21294676Y-60674580D01*
X21294677Y-60674581D01*
X21430004Y-60701500D01*
X21430007Y-60701500D01*
X24569996Y-60701500D01*
X24661040Y-60683389D01*
X24705328Y-60674580D01*
X24769069Y-60648177D01*
X24832807Y-60621777D01*
X24832808Y-60621776D01*
X24832811Y-60621775D01*
X24947543Y-60545114D01*
X25969639Y-59523016D01*
X26001017Y-59500218D01*
X26116788Y-59441232D01*
X26256928Y-59339414D01*
X26379414Y-59216928D01*
X26481232Y-59076788D01*
X26559873Y-58922445D01*
X26613402Y-58757701D01*
X26640500Y-58586611D01*
X26640500Y-58413389D01*
X26979500Y-58413389D01*
X26979500Y-58586610D01*
X27006597Y-58757697D01*
X27006597Y-58757699D01*
X27006598Y-58757701D01*
X27060127Y-58922445D01*
X27138768Y-59076788D01*
X27240586Y-59216928D01*
X27363072Y-59339414D01*
X27503212Y-59441232D01*
X27657555Y-59519873D01*
X27822299Y-59573402D01*
X27993389Y-59600500D01*
X27993390Y-59600500D01*
X28166610Y-59600500D01*
X28166611Y-59600500D01*
X28337701Y-59573402D01*
X28502445Y-59519873D01*
X28656788Y-59441232D01*
X28796928Y-59339414D01*
X28919414Y-59216928D01*
X29021232Y-59076788D01*
X29099873Y-58922445D01*
X29153402Y-58757701D01*
X29180500Y-58586611D01*
X29180500Y-58413389D01*
X29519500Y-58413389D01*
X29519500Y-58586610D01*
X29546597Y-58757697D01*
X29546597Y-58757699D01*
X29546598Y-58757701D01*
X29600127Y-58922445D01*
X29678768Y-59076788D01*
X29780586Y-59216928D01*
X29903072Y-59339414D01*
X30043212Y-59441232D01*
X30197555Y-59519873D01*
X30362299Y-59573402D01*
X30533389Y-59600500D01*
X30533390Y-59600500D01*
X30706610Y-59600500D01*
X30706611Y-59600500D01*
X30877701Y-59573402D01*
X31042445Y-59519873D01*
X31196788Y-59441232D01*
X31336928Y-59339414D01*
X31459414Y-59216928D01*
X31561232Y-59076788D01*
X31639873Y-58922445D01*
X31693402Y-58757701D01*
X31720500Y-58586611D01*
X31720500Y-58413389D01*
X32059500Y-58413389D01*
X32059500Y-58586610D01*
X32086597Y-58757697D01*
X32086597Y-58757699D01*
X32086598Y-58757701D01*
X32140127Y-58922445D01*
X32218768Y-59076788D01*
X32320586Y-59216928D01*
X32443072Y-59339414D01*
X32583212Y-59441232D01*
X32737555Y-59519873D01*
X32902299Y-59573402D01*
X33073389Y-59600500D01*
X33073390Y-59600500D01*
X33246610Y-59600500D01*
X33246611Y-59600500D01*
X33417701Y-59573402D01*
X33582445Y-59519873D01*
X33736788Y-59441232D01*
X33876928Y-59339414D01*
X33999414Y-59216928D01*
X34101232Y-59076788D01*
X34179873Y-58922445D01*
X34233402Y-58757701D01*
X34260500Y-58586611D01*
X34260500Y-58413389D01*
X34599500Y-58413389D01*
X34599500Y-58586610D01*
X34626597Y-58757697D01*
X34626597Y-58757699D01*
X34626598Y-58757701D01*
X34680127Y-58922445D01*
X34758768Y-59076788D01*
X34860586Y-59216928D01*
X34983072Y-59339414D01*
X35123212Y-59441232D01*
X35277555Y-59519873D01*
X35442299Y-59573402D01*
X35613389Y-59600500D01*
X35613390Y-59600500D01*
X35786610Y-59600500D01*
X35786611Y-59600500D01*
X35957701Y-59573402D01*
X36122445Y-59519873D01*
X36276788Y-59441232D01*
X36416928Y-59339414D01*
X36539414Y-59216928D01*
X36641232Y-59076788D01*
X36719873Y-58922445D01*
X36773402Y-58757701D01*
X36800500Y-58586611D01*
X36800500Y-58413389D01*
X37139500Y-58413389D01*
X37139500Y-58586610D01*
X37166597Y-58757697D01*
X37166597Y-58757699D01*
X37166598Y-58757701D01*
X37220127Y-58922445D01*
X37298768Y-59076788D01*
X37400586Y-59216928D01*
X37523072Y-59339414D01*
X37663212Y-59441232D01*
X37817555Y-59519873D01*
X37982299Y-59573402D01*
X38153389Y-59600500D01*
X38153390Y-59600500D01*
X38326610Y-59600500D01*
X38326611Y-59600500D01*
X38497701Y-59573402D01*
X38662445Y-59519873D01*
X38816788Y-59441232D01*
X38956928Y-59339414D01*
X39079414Y-59216928D01*
X39181232Y-59076788D01*
X39259873Y-58922445D01*
X39313402Y-58757701D01*
X39340500Y-58586611D01*
X39340500Y-58413389D01*
X39679500Y-58413389D01*
X39679500Y-58586610D01*
X39706597Y-58757697D01*
X39706597Y-58757699D01*
X39706598Y-58757701D01*
X39760127Y-58922445D01*
X39838768Y-59076788D01*
X39940586Y-59216928D01*
X40063072Y-59339414D01*
X40203212Y-59441232D01*
X40357555Y-59519873D01*
X40522299Y-59573402D01*
X40693389Y-59600500D01*
X40693390Y-59600500D01*
X40866610Y-59600500D01*
X40866611Y-59600500D01*
X41037701Y-59573402D01*
X41202445Y-59519873D01*
X41356788Y-59441232D01*
X41496928Y-59339414D01*
X41619414Y-59216928D01*
X41721232Y-59076788D01*
X41799873Y-58922445D01*
X41853402Y-58757701D01*
X41880500Y-58586611D01*
X41880500Y-58413389D01*
X41853402Y-58242299D01*
X41799873Y-58077555D01*
X41721232Y-57923212D01*
X41619414Y-57783072D01*
X41496928Y-57660586D01*
X41356788Y-57558768D01*
X41202445Y-57480127D01*
X41037701Y-57426598D01*
X41037699Y-57426597D01*
X41037698Y-57426597D01*
X40906271Y-57405781D01*
X40866611Y-57399500D01*
X40693389Y-57399500D01*
X40653728Y-57405781D01*
X40522302Y-57426597D01*
X40357552Y-57480128D01*
X40203211Y-57558768D01*
X40123256Y-57616859D01*
X40063072Y-57660586D01*
X40063070Y-57660588D01*
X40063069Y-57660588D01*
X39940588Y-57783069D01*
X39940588Y-57783070D01*
X39940586Y-57783072D01*
X39896859Y-57843256D01*
X39838768Y-57923211D01*
X39760128Y-58077552D01*
X39706597Y-58242302D01*
X39679500Y-58413389D01*
X39340500Y-58413389D01*
X39313402Y-58242299D01*
X39259873Y-58077555D01*
X39181232Y-57923212D01*
X39079414Y-57783072D01*
X38956928Y-57660586D01*
X38816788Y-57558768D01*
X38662445Y-57480127D01*
X38497701Y-57426598D01*
X38497699Y-57426597D01*
X38497698Y-57426597D01*
X38366271Y-57405781D01*
X38326611Y-57399500D01*
X38153389Y-57399500D01*
X38113728Y-57405781D01*
X37982302Y-57426597D01*
X37817552Y-57480128D01*
X37663211Y-57558768D01*
X37583256Y-57616859D01*
X37523072Y-57660586D01*
X37523070Y-57660588D01*
X37523069Y-57660588D01*
X37400588Y-57783069D01*
X37400588Y-57783070D01*
X37400586Y-57783072D01*
X37356859Y-57843256D01*
X37298768Y-57923211D01*
X37220128Y-58077552D01*
X37166597Y-58242302D01*
X37139500Y-58413389D01*
X36800500Y-58413389D01*
X36773402Y-58242299D01*
X36719873Y-58077555D01*
X36641232Y-57923212D01*
X36539414Y-57783072D01*
X36416928Y-57660586D01*
X36276788Y-57558768D01*
X36122445Y-57480127D01*
X35957701Y-57426598D01*
X35957699Y-57426597D01*
X35957698Y-57426597D01*
X35826271Y-57405781D01*
X35786611Y-57399500D01*
X35613389Y-57399500D01*
X35573728Y-57405781D01*
X35442302Y-57426597D01*
X35277552Y-57480128D01*
X35123211Y-57558768D01*
X35043256Y-57616859D01*
X34983072Y-57660586D01*
X34983070Y-57660588D01*
X34983069Y-57660588D01*
X34860588Y-57783069D01*
X34860588Y-57783070D01*
X34860586Y-57783072D01*
X34816859Y-57843256D01*
X34758768Y-57923211D01*
X34680128Y-58077552D01*
X34626597Y-58242302D01*
X34599500Y-58413389D01*
X34260500Y-58413389D01*
X34233402Y-58242299D01*
X34179873Y-58077555D01*
X34101232Y-57923212D01*
X33999414Y-57783072D01*
X33876928Y-57660586D01*
X33736788Y-57558768D01*
X33582445Y-57480127D01*
X33417701Y-57426598D01*
X33417699Y-57426597D01*
X33417698Y-57426597D01*
X33286271Y-57405781D01*
X33246611Y-57399500D01*
X33073389Y-57399500D01*
X33033728Y-57405781D01*
X32902302Y-57426597D01*
X32737552Y-57480128D01*
X32583211Y-57558768D01*
X32503256Y-57616859D01*
X32443072Y-57660586D01*
X32443070Y-57660588D01*
X32443069Y-57660588D01*
X32320588Y-57783069D01*
X32320588Y-57783070D01*
X32320586Y-57783072D01*
X32276859Y-57843256D01*
X32218768Y-57923211D01*
X32140128Y-58077552D01*
X32086597Y-58242302D01*
X32059500Y-58413389D01*
X31720500Y-58413389D01*
X31693402Y-58242299D01*
X31639873Y-58077555D01*
X31561232Y-57923212D01*
X31459414Y-57783072D01*
X31336928Y-57660586D01*
X31196788Y-57558768D01*
X31042445Y-57480127D01*
X30877701Y-57426598D01*
X30877699Y-57426597D01*
X30877698Y-57426597D01*
X30746271Y-57405781D01*
X30706611Y-57399500D01*
X30533389Y-57399500D01*
X30493728Y-57405781D01*
X30362302Y-57426597D01*
X30197552Y-57480128D01*
X30043211Y-57558768D01*
X29963256Y-57616859D01*
X29903072Y-57660586D01*
X29903070Y-57660588D01*
X29903069Y-57660588D01*
X29780588Y-57783069D01*
X29780588Y-57783070D01*
X29780586Y-57783072D01*
X29736859Y-57843256D01*
X29678768Y-57923211D01*
X29600128Y-58077552D01*
X29546597Y-58242302D01*
X29519500Y-58413389D01*
X29180500Y-58413389D01*
X29153402Y-58242299D01*
X29099873Y-58077555D01*
X29021232Y-57923212D01*
X28919414Y-57783072D01*
X28796928Y-57660586D01*
X28656788Y-57558768D01*
X28502445Y-57480127D01*
X28337701Y-57426598D01*
X28337699Y-57426597D01*
X28337698Y-57426597D01*
X28206271Y-57405781D01*
X28166611Y-57399500D01*
X27993389Y-57399500D01*
X27953728Y-57405781D01*
X27822302Y-57426597D01*
X27657552Y-57480128D01*
X27503211Y-57558768D01*
X27423256Y-57616859D01*
X27363072Y-57660586D01*
X27363070Y-57660588D01*
X27363069Y-57660588D01*
X27240588Y-57783069D01*
X27240588Y-57783070D01*
X27240586Y-57783072D01*
X27196859Y-57843256D01*
X27138768Y-57923211D01*
X27060128Y-58077552D01*
X27006597Y-58242302D01*
X26979500Y-58413389D01*
X26640500Y-58413389D01*
X26613402Y-58242299D01*
X26559873Y-58077555D01*
X26481232Y-57923212D01*
X26379414Y-57783072D01*
X26256928Y-57660586D01*
X26116788Y-57558768D01*
X25962445Y-57480127D01*
X25797701Y-57426598D01*
X25797699Y-57426597D01*
X25797698Y-57426597D01*
X25666271Y-57405781D01*
X25626611Y-57399500D01*
X25453389Y-57399500D01*
X25413728Y-57405781D01*
X25282302Y-57426597D01*
X25117552Y-57480128D01*
X24963211Y-57558768D01*
X24883256Y-57616859D01*
X24823072Y-57660586D01*
X24823070Y-57660588D01*
X24823069Y-57660588D01*
X24700588Y-57783069D01*
X24700588Y-57783070D01*
X24700586Y-57783072D01*
X24656859Y-57843256D01*
X24598768Y-57923211D01*
X24520128Y-58077552D01*
X24466597Y-58242302D01*
X24439500Y-58413389D01*
X24439500Y-58586610D01*
X24466597Y-58757698D01*
X24513510Y-58902082D01*
X24515505Y-58971923D01*
X24483260Y-59028081D01*
X24312181Y-59199161D01*
X24250858Y-59232646D01*
X24181167Y-59227662D01*
X24125233Y-59185791D01*
X24100816Y-59120326D01*
X24100500Y-59111480D01*
X24100500Y-57625323D01*
X24100499Y-57625321D01*
X24085967Y-57552264D01*
X24085966Y-57552260D01*
X24030601Y-57469399D01*
X23947740Y-57414034D01*
X23947739Y-57414033D01*
X23947735Y-57414032D01*
X23874677Y-57399500D01*
X23874674Y-57399500D01*
X22941519Y-57399500D01*
X22874480Y-57379815D01*
X22853838Y-57363181D01*
X18536819Y-53046162D01*
X18503334Y-52984839D01*
X18500500Y-52958481D01*
X18500500Y-43804500D01*
X18520185Y-43737461D01*
X18572989Y-43691706D01*
X18624500Y-43680500D01*
X18674676Y-43680500D01*
X18674677Y-43680499D01*
X18747740Y-43665966D01*
X18830601Y-43610601D01*
X18885966Y-43527740D01*
X18900500Y-43454674D01*
X18900500Y-41705326D01*
X18900500Y-41705323D01*
X18900499Y-41705321D01*
X18885967Y-41632264D01*
X18885966Y-41632260D01*
X18830601Y-41549399D01*
X18747740Y-41494034D01*
X18747739Y-41494033D01*
X18747735Y-41494032D01*
X18674677Y-41479500D01*
X18674674Y-41479500D01*
X17123500Y-41479500D01*
X17056461Y-41459815D01*
X17010706Y-41407011D01*
X16999500Y-41355500D01*
X16999500Y-41062059D01*
X17019185Y-40995020D01*
X17071989Y-40949265D01*
X17141147Y-40939321D01*
X17196385Y-40961741D01*
X17209502Y-40971271D01*
X17223210Y-40981231D01*
X17223212Y-40981232D01*
X17377555Y-41059873D01*
X17542299Y-41113402D01*
X17713389Y-41140500D01*
X17713390Y-41140500D01*
X17886610Y-41140500D01*
X17886611Y-41140500D01*
X18057701Y-41113402D01*
X18222445Y-41059873D01*
X18376788Y-40981232D01*
X18516928Y-40879414D01*
X18639414Y-40756928D01*
X18741232Y-40616788D01*
X18819873Y-40462445D01*
X18857894Y-40345426D01*
X18888141Y-40296067D01*
X24177821Y-35006388D01*
X24239142Y-34972905D01*
X24308834Y-34977889D01*
X24364767Y-35019761D01*
X24389184Y-35085225D01*
X24389500Y-35094071D01*
X24389500Y-40514927D01*
X24369815Y-40581966D01*
X24353181Y-40602608D01*
X22743933Y-42211855D01*
X22694572Y-42242104D01*
X22577554Y-42280127D01*
X22423211Y-42358768D01*
X22343256Y-42416859D01*
X22283072Y-42460586D01*
X22283070Y-42460588D01*
X22283069Y-42460588D01*
X22160588Y-42583069D01*
X22160588Y-42583070D01*
X22160586Y-42583072D01*
X22116859Y-42643256D01*
X22058768Y-42723211D01*
X21980128Y-42877552D01*
X21926597Y-43042302D01*
X21899500Y-43213389D01*
X21899500Y-43386610D01*
X21921852Y-43527740D01*
X21926598Y-43557701D01*
X21973510Y-43702081D01*
X21980128Y-43722447D01*
X22033777Y-43827740D01*
X22058768Y-43876788D01*
X22160586Y-44016928D01*
X22283072Y-44139414D01*
X22423212Y-44241232D01*
X22577555Y-44319873D01*
X22742299Y-44373402D01*
X22913389Y-44400500D01*
X22913390Y-44400500D01*
X23086610Y-44400500D01*
X23086611Y-44400500D01*
X23257701Y-44373402D01*
X23422445Y-44319873D01*
X23576788Y-44241232D01*
X23716928Y-44139414D01*
X23839414Y-44016928D01*
X23941232Y-43876788D01*
X24019873Y-43722445D01*
X24057894Y-43605426D01*
X24088141Y-43556067D01*
X24430819Y-43213389D01*
X26979500Y-43213389D01*
X26979500Y-43386610D01*
X27001852Y-43527740D01*
X27006598Y-43557701D01*
X27053510Y-43702081D01*
X27060128Y-43722447D01*
X27113777Y-43827740D01*
X27138768Y-43876788D01*
X27240586Y-44016928D01*
X27363072Y-44139414D01*
X27503212Y-44241232D01*
X27657555Y-44319873D01*
X27822299Y-44373402D01*
X27993389Y-44400500D01*
X27993390Y-44400500D01*
X28166610Y-44400500D01*
X28166611Y-44400500D01*
X28337701Y-44373402D01*
X28502445Y-44319873D01*
X28656788Y-44241232D01*
X28796928Y-44139414D01*
X28919414Y-44016928D01*
X29021232Y-43876788D01*
X29099873Y-43722445D01*
X29153402Y-43557701D01*
X29180500Y-43386611D01*
X29180500Y-43213389D01*
X29519500Y-43213389D01*
X29519500Y-43386610D01*
X29541852Y-43527740D01*
X29546598Y-43557701D01*
X29593510Y-43702081D01*
X29600128Y-43722447D01*
X29653777Y-43827740D01*
X29678768Y-43876788D01*
X29780586Y-44016928D01*
X29903072Y-44139414D01*
X30043212Y-44241232D01*
X30197555Y-44319873D01*
X30362299Y-44373402D01*
X30533389Y-44400500D01*
X30533390Y-44400500D01*
X30706610Y-44400500D01*
X30706611Y-44400500D01*
X30877701Y-44373402D01*
X31042445Y-44319873D01*
X31196788Y-44241232D01*
X31336928Y-44139414D01*
X31459414Y-44016928D01*
X31561232Y-43876788D01*
X31639873Y-43722445D01*
X31693402Y-43557701D01*
X31720500Y-43386611D01*
X31720500Y-43213389D01*
X32059500Y-43213389D01*
X32059500Y-43386610D01*
X32081852Y-43527740D01*
X32086598Y-43557701D01*
X32133510Y-43702081D01*
X32140128Y-43722447D01*
X32193777Y-43827740D01*
X32218768Y-43876788D01*
X32320586Y-44016928D01*
X32443072Y-44139414D01*
X32583212Y-44241232D01*
X32737555Y-44319873D01*
X32902299Y-44373402D01*
X33073389Y-44400500D01*
X33073390Y-44400500D01*
X33246610Y-44400500D01*
X33246611Y-44400500D01*
X33417701Y-44373402D01*
X33582445Y-44319873D01*
X33736788Y-44241232D01*
X33876928Y-44139414D01*
X33999414Y-44016928D01*
X34101232Y-43876788D01*
X34179873Y-43722445D01*
X34233402Y-43557701D01*
X34260500Y-43386611D01*
X34260500Y-43213389D01*
X34599500Y-43213389D01*
X34599500Y-43386610D01*
X34621852Y-43527740D01*
X34626598Y-43557701D01*
X34673510Y-43702081D01*
X34680128Y-43722447D01*
X34733777Y-43827740D01*
X34758768Y-43876788D01*
X34860586Y-44016928D01*
X34983072Y-44139414D01*
X35123212Y-44241232D01*
X35277555Y-44319873D01*
X35442299Y-44373402D01*
X35613389Y-44400500D01*
X35613390Y-44400500D01*
X35786610Y-44400500D01*
X35786611Y-44400500D01*
X35957701Y-44373402D01*
X36122445Y-44319873D01*
X36276788Y-44241232D01*
X36416928Y-44139414D01*
X36539414Y-44016928D01*
X36641232Y-43876788D01*
X36719873Y-43722445D01*
X36773402Y-43557701D01*
X36800500Y-43386611D01*
X36800500Y-43213389D01*
X37139500Y-43213389D01*
X37139500Y-43386610D01*
X37161852Y-43527740D01*
X37166598Y-43557701D01*
X37213510Y-43702081D01*
X37220128Y-43722447D01*
X37273777Y-43827740D01*
X37298768Y-43876788D01*
X37400586Y-44016928D01*
X37523072Y-44139414D01*
X37571606Y-44174676D01*
X37663207Y-44241229D01*
X37663209Y-44241230D01*
X37663212Y-44241232D01*
X37778976Y-44300216D01*
X37810362Y-44323019D01*
X40231453Y-46744111D01*
X40231454Y-46744112D01*
X40346192Y-46820777D01*
X40473667Y-46873578D01*
X40473672Y-46873580D01*
X40473676Y-46873580D01*
X40473677Y-46873581D01*
X40609003Y-46900500D01*
X40609006Y-46900500D01*
X47468996Y-46900500D01*
X47560040Y-46882389D01*
X47604328Y-46873580D01*
X47668069Y-46847177D01*
X47731807Y-46820777D01*
X47731808Y-46820776D01*
X47731811Y-46820775D01*
X47846543Y-46744114D01*
X49444113Y-45146543D01*
X49520774Y-45031812D01*
X49520775Y-45031811D01*
X49573580Y-44904328D01*
X49600500Y-44768993D01*
X49600500Y-33411007D01*
X49600500Y-33411004D01*
X49573581Y-33275677D01*
X49573580Y-33275676D01*
X49573580Y-33275672D01*
X49520775Y-33148189D01*
X49502458Y-33120775D01*
X49444114Y-33033457D01*
X49444111Y-33033453D01*
X47436819Y-31026161D01*
X47403334Y-30964838D01*
X47400500Y-30938480D01*
X47400500Y-30005323D01*
X47400499Y-30005321D01*
X47385967Y-29932264D01*
X47385966Y-29932260D01*
X47330601Y-29849399D01*
X47247740Y-29794034D01*
X47247739Y-29794033D01*
X47247735Y-29794032D01*
X47174677Y-29779500D01*
X47174674Y-29779500D01*
X45425326Y-29779500D01*
X45425323Y-29779500D01*
X45352264Y-29794032D01*
X45352260Y-29794033D01*
X45269399Y-29849399D01*
X45214033Y-29932260D01*
X45214032Y-29932264D01*
X45199500Y-30005321D01*
X45199500Y-31754678D01*
X45214032Y-31827735D01*
X45214033Y-31827739D01*
X45214034Y-31827740D01*
X45269399Y-31910601D01*
X45352260Y-31965966D01*
X45352264Y-31965967D01*
X45425321Y-31980499D01*
X45425324Y-31980500D01*
X45425326Y-31980500D01*
X46358481Y-31980500D01*
X46425520Y-32000185D01*
X46446162Y-32016819D01*
X48163181Y-33733838D01*
X48196666Y-33795161D01*
X48199500Y-33821519D01*
X48199500Y-44358481D01*
X48179815Y-44425520D01*
X48163181Y-44446162D01*
X47146162Y-45463181D01*
X47084839Y-45496666D01*
X47058481Y-45499500D01*
X41019519Y-45499500D01*
X40952480Y-45479815D01*
X40931838Y-45463181D01*
X40080838Y-44612181D01*
X40047353Y-44550858D01*
X40052337Y-44481166D01*
X40094209Y-44425233D01*
X40159673Y-44400816D01*
X40168519Y-44400500D01*
X41654676Y-44400500D01*
X41654677Y-44400499D01*
X41727740Y-44385966D01*
X41810601Y-44330601D01*
X41865966Y-44247740D01*
X41880500Y-44174674D01*
X41880500Y-44124500D01*
X41900185Y-44057461D01*
X41952989Y-44011706D01*
X42004500Y-44000500D01*
X45848995Y-44000500D01*
X45937559Y-43982883D01*
X45961751Y-43980500D01*
X47074676Y-43980500D01*
X47074677Y-43980499D01*
X47147740Y-43965966D01*
X47230601Y-43910601D01*
X47285966Y-43827740D01*
X47300500Y-43754674D01*
X47300500Y-42005326D01*
X47300500Y-42005323D01*
X47300499Y-42005321D01*
X47285967Y-41932264D01*
X47285966Y-41932260D01*
X47230601Y-41849399D01*
X47147740Y-41794034D01*
X47147739Y-41794033D01*
X47147735Y-41794032D01*
X47074677Y-41779500D01*
X47074674Y-41779500D01*
X45325326Y-41779500D01*
X45325323Y-41779500D01*
X45252264Y-41794032D01*
X45252260Y-41794033D01*
X45169399Y-41849399D01*
X45114033Y-41932260D01*
X45114032Y-41932264D01*
X45099500Y-42005321D01*
X45099500Y-42475500D01*
X45079815Y-42542539D01*
X45027011Y-42588294D01*
X44975500Y-42599500D01*
X42004500Y-42599500D01*
X41937461Y-42579815D01*
X41891706Y-42527011D01*
X41880500Y-42475500D01*
X41880500Y-42425323D01*
X41880499Y-42425321D01*
X41865967Y-42352264D01*
X41865966Y-42352260D01*
X41810601Y-42269399D01*
X41727740Y-42214034D01*
X41727739Y-42214033D01*
X41727735Y-42214032D01*
X41654677Y-42199500D01*
X41654674Y-42199500D01*
X39905326Y-42199500D01*
X39905323Y-42199500D01*
X39832264Y-42214032D01*
X39832260Y-42214033D01*
X39749399Y-42269399D01*
X39694033Y-42352260D01*
X39694032Y-42352264D01*
X39679500Y-42425321D01*
X39679500Y-43911481D01*
X39659815Y-43978520D01*
X39607011Y-44024275D01*
X39537853Y-44034219D01*
X39474297Y-44005194D01*
X39467819Y-43999162D01*
X39296738Y-43828081D01*
X39263253Y-43766758D01*
X39266487Y-43702087D01*
X39313402Y-43557701D01*
X39340500Y-43386611D01*
X39340500Y-43213389D01*
X39313402Y-43042299D01*
X39259873Y-42877555D01*
X39181232Y-42723212D01*
X39079414Y-42583072D01*
X38956928Y-42460586D01*
X38816788Y-42358768D01*
X38662445Y-42280127D01*
X38497701Y-42226598D01*
X38497699Y-42226597D01*
X38497698Y-42226597D01*
X38366271Y-42205781D01*
X38326611Y-42199500D01*
X38153389Y-42199500D01*
X38113728Y-42205781D01*
X37982302Y-42226597D01*
X37817552Y-42280128D01*
X37663211Y-42358768D01*
X37583256Y-42416859D01*
X37523072Y-42460586D01*
X37523070Y-42460588D01*
X37523069Y-42460588D01*
X37400588Y-42583069D01*
X37400588Y-42583070D01*
X37400586Y-42583072D01*
X37356859Y-42643256D01*
X37298768Y-42723211D01*
X37220128Y-42877552D01*
X37166597Y-43042302D01*
X37139500Y-43213389D01*
X36800500Y-43213389D01*
X36773402Y-43042299D01*
X36719873Y-42877555D01*
X36641232Y-42723212D01*
X36539414Y-42583072D01*
X36416928Y-42460586D01*
X36276788Y-42358768D01*
X36122445Y-42280127D01*
X35957701Y-42226598D01*
X35957699Y-42226597D01*
X35957698Y-42226597D01*
X35826271Y-42205781D01*
X35786611Y-42199500D01*
X35613389Y-42199500D01*
X35573728Y-42205781D01*
X35442302Y-42226597D01*
X35277552Y-42280128D01*
X35123211Y-42358768D01*
X35043256Y-42416859D01*
X34983072Y-42460586D01*
X34983070Y-42460588D01*
X34983069Y-42460588D01*
X34860588Y-42583069D01*
X34860588Y-42583070D01*
X34860586Y-42583072D01*
X34816859Y-42643256D01*
X34758768Y-42723211D01*
X34680128Y-42877552D01*
X34626597Y-43042302D01*
X34599500Y-43213389D01*
X34260500Y-43213389D01*
X34233402Y-43042299D01*
X34179873Y-42877555D01*
X34101232Y-42723212D01*
X33999414Y-42583072D01*
X33876928Y-42460586D01*
X33736788Y-42358768D01*
X33582445Y-42280127D01*
X33417701Y-42226598D01*
X33417699Y-42226597D01*
X33417698Y-42226597D01*
X33286271Y-42205781D01*
X33246611Y-42199500D01*
X33073389Y-42199500D01*
X33033728Y-42205781D01*
X32902302Y-42226597D01*
X32737552Y-42280128D01*
X32583211Y-42358768D01*
X32503256Y-42416859D01*
X32443072Y-42460586D01*
X32443070Y-42460588D01*
X32443069Y-42460588D01*
X32320588Y-42583069D01*
X32320588Y-42583070D01*
X32320586Y-42583072D01*
X32276859Y-42643256D01*
X32218768Y-42723211D01*
X32140128Y-42877552D01*
X32086597Y-43042302D01*
X32059500Y-43213389D01*
X31720500Y-43213389D01*
X31693402Y-43042299D01*
X31639873Y-42877555D01*
X31561232Y-42723212D01*
X31459414Y-42583072D01*
X31336928Y-42460586D01*
X31196788Y-42358768D01*
X31042445Y-42280127D01*
X30877701Y-42226598D01*
X30877699Y-42226597D01*
X30877698Y-42226597D01*
X30746271Y-42205781D01*
X30706611Y-42199500D01*
X30533389Y-42199500D01*
X30493728Y-42205781D01*
X30362302Y-42226597D01*
X30197552Y-42280128D01*
X30043211Y-42358768D01*
X29963256Y-42416859D01*
X29903072Y-42460586D01*
X29903070Y-42460588D01*
X29903069Y-42460588D01*
X29780588Y-42583069D01*
X29780588Y-42583070D01*
X29780586Y-42583072D01*
X29736859Y-42643256D01*
X29678768Y-42723211D01*
X29600128Y-42877552D01*
X29546597Y-43042302D01*
X29519500Y-43213389D01*
X29180500Y-43213389D01*
X29153402Y-43042299D01*
X29099873Y-42877555D01*
X29021232Y-42723212D01*
X28919414Y-42583072D01*
X28796928Y-42460586D01*
X28656788Y-42358768D01*
X28502445Y-42280127D01*
X28337701Y-42226598D01*
X28337699Y-42226597D01*
X28337698Y-42226597D01*
X28206271Y-42205781D01*
X28166611Y-42199500D01*
X27993389Y-42199500D01*
X27953728Y-42205781D01*
X27822302Y-42226597D01*
X27657552Y-42280128D01*
X27503211Y-42358768D01*
X27423256Y-42416859D01*
X27363072Y-42460586D01*
X27363070Y-42460588D01*
X27363069Y-42460588D01*
X27240588Y-42583069D01*
X27240588Y-42583070D01*
X27240586Y-42583072D01*
X27196859Y-42643256D01*
X27138768Y-42723211D01*
X27060128Y-42877552D01*
X27006597Y-43042302D01*
X26979500Y-43213389D01*
X24430819Y-43213389D01*
X26078302Y-41565908D01*
X26182323Y-41410230D01*
X26253973Y-41237250D01*
X26265478Y-41179414D01*
X26288821Y-41062059D01*
X26290500Y-41053617D01*
X26290500Y-40866383D01*
X26290500Y-33574500D01*
X26310185Y-33507461D01*
X26362989Y-33461706D01*
X26414500Y-33450500D01*
X37914928Y-33450500D01*
X37981967Y-33470185D01*
X38002609Y-33486819D01*
X45111855Y-40596065D01*
X45142105Y-40645427D01*
X45180128Y-40762449D01*
X45239725Y-40879414D01*
X45258768Y-40916788D01*
X45360586Y-41056928D01*
X45483072Y-41179414D01*
X45623212Y-41281232D01*
X45777555Y-41359873D01*
X45942299Y-41413402D01*
X46113389Y-41440500D01*
X46113390Y-41440500D01*
X46286610Y-41440500D01*
X46286611Y-41440500D01*
X46457701Y-41413402D01*
X46622445Y-41359873D01*
X46776788Y-41281232D01*
X46916928Y-41179414D01*
X47039414Y-41056928D01*
X47141232Y-40916788D01*
X47219873Y-40762445D01*
X47273402Y-40597701D01*
X47300500Y-40426611D01*
X47300500Y-40253389D01*
X47273402Y-40082299D01*
X47219873Y-39917555D01*
X47141232Y-39763212D01*
X47039414Y-39623072D01*
X46916928Y-39500586D01*
X46776788Y-39398768D01*
X46622449Y-39320128D01*
X46523084Y-39287842D01*
X46505426Y-39282104D01*
X46456065Y-39251855D01*
X38965911Y-31761700D01*
X38965907Y-31761697D01*
X38810236Y-31657680D01*
X38810223Y-31657673D01*
X38682497Y-31604768D01*
X38682492Y-31604766D01*
X38674987Y-31601658D01*
X38637251Y-31586027D01*
X38545433Y-31567763D01*
X38541444Y-31566969D01*
X38541442Y-31566969D01*
X38453620Y-31549500D01*
X38453617Y-31549500D01*
X38453616Y-31549500D01*
X26414500Y-31549500D01*
X26347461Y-31529815D01*
X26301706Y-31477011D01*
X26290500Y-31425500D01*
X26290500Y-29514500D01*
X26310185Y-29447461D01*
X26362989Y-29401706D01*
X26414500Y-29390500D01*
X45952174Y-29390500D01*
X45990491Y-29396568D01*
X46009244Y-29402662D01*
X46042298Y-29413402D01*
X46127844Y-29426951D01*
X46213389Y-29440500D01*
X46213390Y-29440500D01*
X46386610Y-29440500D01*
X46386611Y-29440500D01*
X46557701Y-29413402D01*
X46722445Y-29359873D01*
X46876788Y-29281232D01*
X47016928Y-29179414D01*
X47139414Y-29056928D01*
X47241232Y-28916788D01*
X47319873Y-28762445D01*
X47373402Y-28597701D01*
X47400500Y-28426611D01*
X47400500Y-28253389D01*
X47373402Y-28082299D01*
X47319873Y-27917555D01*
X47241232Y-27763212D01*
X47139414Y-27623072D01*
X47016928Y-27500586D01*
X46876788Y-27398768D01*
X46722445Y-27320127D01*
X46557701Y-27266598D01*
X46557699Y-27266597D01*
X46557698Y-27266597D01*
X46426271Y-27245781D01*
X46386611Y-27239500D01*
X46213389Y-27239500D01*
X46173728Y-27245781D01*
X46042302Y-27266597D01*
X45877552Y-27320128D01*
X45723211Y-27398768D01*
X45630926Y-27465818D01*
X45565119Y-27489298D01*
X45558040Y-27489500D01*
X25785072Y-27489500D01*
X25718033Y-27469815D01*
X25697391Y-27453181D01*
X17046819Y-18802609D01*
X17013334Y-18741286D01*
X17010500Y-18714928D01*
X17010500Y-17965321D01*
X31199500Y-17965321D01*
X31199500Y-19714678D01*
X31214032Y-19787735D01*
X31214033Y-19787739D01*
X31214034Y-19787740D01*
X31269399Y-19870601D01*
X31314147Y-19900500D01*
X31352260Y-19925966D01*
X31352264Y-19925967D01*
X31425321Y-19940499D01*
X31425324Y-19940500D01*
X31425326Y-19940500D01*
X33174676Y-19940500D01*
X33174677Y-19940499D01*
X33247740Y-19925966D01*
X33330601Y-19870601D01*
X33385966Y-19787740D01*
X33400500Y-19714674D01*
X33400500Y-19664500D01*
X33420185Y-19597461D01*
X33472989Y-19551706D01*
X33524500Y-19540500D01*
X40932796Y-19540500D01*
X40999835Y-19560185D01*
X41020477Y-19576819D01*
X41083072Y-19639414D01*
X41223212Y-19741232D01*
X41377555Y-19819873D01*
X41542299Y-19873402D01*
X41713389Y-19900500D01*
X41713390Y-19900500D01*
X41886610Y-19900500D01*
X41886611Y-19900500D01*
X42057701Y-19873402D01*
X42222445Y-19819873D01*
X42376788Y-19741232D01*
X42516928Y-19639414D01*
X42639414Y-19516928D01*
X42741232Y-19376788D01*
X42819873Y-19222445D01*
X42873402Y-19057701D01*
X42900500Y-18886611D01*
X42900500Y-18713389D01*
X42873402Y-18542299D01*
X42819873Y-18377555D01*
X42741232Y-18223212D01*
X42639414Y-18083072D01*
X42516928Y-17960586D01*
X42376788Y-17858768D01*
X42222445Y-17780127D01*
X42057701Y-17726598D01*
X42057699Y-17726597D01*
X42057698Y-17726597D01*
X41926271Y-17705781D01*
X41886611Y-17699500D01*
X41713389Y-17699500D01*
X41673728Y-17705781D01*
X41542302Y-17726597D01*
X41377552Y-17780128D01*
X41223211Y-17858768D01*
X41143256Y-17916859D01*
X41083072Y-17960586D01*
X41083070Y-17960588D01*
X41083069Y-17960588D01*
X40960582Y-18083075D01*
X40956726Y-18088384D01*
X40901396Y-18131051D01*
X40856407Y-18139500D01*
X33524500Y-18139500D01*
X33457461Y-18119815D01*
X33411706Y-18067011D01*
X33400500Y-18015500D01*
X33400500Y-17965323D01*
X33400499Y-17965321D01*
X33385967Y-17892264D01*
X33385966Y-17892260D01*
X33330601Y-17809399D01*
X33247740Y-17754034D01*
X33247739Y-17754033D01*
X33247735Y-17754032D01*
X33174677Y-17739500D01*
X33174674Y-17739500D01*
X31425326Y-17739500D01*
X31425323Y-17739500D01*
X31352264Y-17754032D01*
X31352260Y-17754033D01*
X31269399Y-17809399D01*
X31214033Y-17892260D01*
X31214032Y-17892264D01*
X31199500Y-17965321D01*
X17010500Y-17965321D01*
X17010500Y-17450401D01*
X17030185Y-17383362D01*
X17065610Y-17347298D01*
X17090601Y-17330601D01*
X17145966Y-17247740D01*
X17160500Y-17174674D01*
X17160500Y-16213389D01*
X17499500Y-16213389D01*
X17499500Y-16386611D01*
X17526598Y-16557701D01*
X17580127Y-16722445D01*
X17658768Y-16876788D01*
X17760586Y-17016928D01*
X17883072Y-17139414D01*
X18023212Y-17241232D01*
X18177555Y-17319873D01*
X18342299Y-17373402D01*
X18513389Y-17400500D01*
X18513390Y-17400500D01*
X18686610Y-17400500D01*
X18686611Y-17400500D01*
X18857701Y-17373402D01*
X19022445Y-17319873D01*
X19176788Y-17241232D01*
X19316928Y-17139414D01*
X19419524Y-17036818D01*
X19480847Y-17003334D01*
X19507205Y-17000500D01*
X31392795Y-17000500D01*
X31459834Y-17020185D01*
X31480476Y-17036818D01*
X31583072Y-17139414D01*
X31723212Y-17241232D01*
X31877555Y-17319873D01*
X32042299Y-17373402D01*
X32213389Y-17400500D01*
X32213390Y-17400500D01*
X32386610Y-17400500D01*
X32386611Y-17400500D01*
X32557701Y-17373402D01*
X32722445Y-17319873D01*
X32876788Y-17241232D01*
X33016928Y-17139414D01*
X33139414Y-17016928D01*
X33241232Y-16876788D01*
X33319873Y-16722445D01*
X33373402Y-16557701D01*
X33400500Y-16386611D01*
X33400500Y-16213389D01*
X33373402Y-16042299D01*
X33319873Y-15877555D01*
X33241232Y-15723212D01*
X33139414Y-15583072D01*
X33016928Y-15460586D01*
X32876788Y-15358768D01*
X32722445Y-15280127D01*
X32557701Y-15226598D01*
X32557699Y-15226597D01*
X32557698Y-15226597D01*
X32426271Y-15205781D01*
X32386611Y-15199500D01*
X32213389Y-15199500D01*
X32173728Y-15205781D01*
X32042302Y-15226597D01*
X31877552Y-15280128D01*
X31723211Y-15358768D01*
X31583073Y-15460585D01*
X31480476Y-15563182D01*
X31419153Y-15596666D01*
X31392795Y-15599500D01*
X19507205Y-15599500D01*
X19440166Y-15579815D01*
X19419524Y-15563182D01*
X19316928Y-15460586D01*
X19176788Y-15358768D01*
X19022445Y-15280127D01*
X18857701Y-15226598D01*
X18857699Y-15226597D01*
X18857698Y-15226597D01*
X18726271Y-15205781D01*
X18686611Y-15199500D01*
X18513389Y-15199500D01*
X18473728Y-15205781D01*
X18342302Y-15226597D01*
X18177552Y-15280128D01*
X18023211Y-15358768D01*
X17943256Y-15416859D01*
X17883072Y-15460586D01*
X17883070Y-15460588D01*
X17883069Y-15460588D01*
X17760588Y-15583069D01*
X17760588Y-15583070D01*
X17760586Y-15583072D01*
X17716859Y-15643256D01*
X17658768Y-15723211D01*
X17580128Y-15877552D01*
X17526597Y-16042302D01*
X17499500Y-16213389D01*
X17160500Y-16213389D01*
X17160500Y-15425326D01*
X17160500Y-15425323D01*
X17160499Y-15425321D01*
X17145967Y-15352264D01*
X17145966Y-15352260D01*
X17090601Y-15269399D01*
X17007740Y-15214034D01*
X17007739Y-15214033D01*
X17007735Y-15214032D01*
X16934677Y-15199500D01*
X16934674Y-15199500D01*
X15185326Y-15199500D01*
X15185323Y-15199500D01*
X15112264Y-15214032D01*
X15112260Y-15214033D01*
X15029399Y-15269399D01*
X14974033Y-15352260D01*
X14974032Y-15352264D01*
X14959500Y-15425321D01*
X12500500Y-15425321D01*
X12500500Y-12624500D01*
X12520185Y-12557461D01*
X12572989Y-12511706D01*
X12624500Y-12500500D01*
X51375500Y-12500500D01*
X51442539Y-12520185D01*
G37*
%TD.AperFunction*%
%TD*%
%TA.AperFunction,NonConductor*%
G36*
X17204703Y-53677894D02*
G01*
X17226601Y-53702715D01*
X17242810Y-53726974D01*
X17255887Y-53746545D01*
X17255888Y-53746546D01*
X21863181Y-58353838D01*
X21896666Y-58415161D01*
X21899500Y-58441519D01*
X21899500Y-59111481D01*
X21879815Y-59178520D01*
X21827011Y-59224275D01*
X21757853Y-59234219D01*
X21694297Y-59205194D01*
X21687819Y-59199162D01*
X17035819Y-54547162D01*
X17002334Y-54485839D01*
X16999500Y-54459481D01*
X16999500Y-53771607D01*
X17019185Y-53704568D01*
X17071989Y-53658813D01*
X17141147Y-53648869D01*
X17204703Y-53677894D01*
G37*
%TD.AperFunction*%
M02*
