M48
; DRILL file {KiCad 9.0.0} date 2025-10-19T17:28:59-0500
; FORMAT={-:-/ absolute / metric / decimal}
; #@! TF.CreationDate,2025-10-19T17:28:59-05:00
; #@! TF.GenerationSoftware,Kicad,Pcbnew,9.0.0
; #@! TF.FileFunction,Plated,1,2,PTH
FMAT,2
METRIC
; #@! TA.AperFunction,Plated,PTH,ComponentDrill
T1C1.000
%
G90
G05
T1
X16.06Y-16.3
X17.8Y-25.9
X17.8Y-28.44
X17.8Y-30.98
X17.8Y-37.5
X17.8Y-40.04
X17.8Y-42.58
X18.6Y-16.3
X23.0Y-43.3
X23.0Y-58.5
X25.54Y-43.3
X25.54Y-58.5
X28.08Y-43.3
X28.08Y-58.5
X30.62Y-43.3
X30.62Y-58.5
X32.3Y-16.3
X32.3Y-18.84
X33.16Y-43.3
X33.16Y-58.5
X35.7Y-43.3
X35.7Y-58.5
X38.24Y-43.3
X38.24Y-58.5
X40.78Y-43.3
X40.78Y-58.5
X41.8Y-16.26
X41.8Y-18.8
X46.2Y-37.8
X46.2Y-40.34
X46.2Y-42.88
X46.3Y-25.8
X46.3Y-28.34
X46.3Y-30.88
M30
