M48
; DRILL file {KiCad 9.0.0} date 2025-10-30T10:02:56-0500
; FORMAT={-:-/ absolute / metric / decimal}
; #@! TF.CreationDate,2025-10-30T10:02:56-05:00
; #@! TF.GenerationSoftware,Kicad,Pcbnew,9.0.0
; #@! TF.FileFunction,Plated,1,2,PTH
FMAT,2
METRIC
; #@! TA.AperFunction,Plated,PTH,ComponentDrill
T1C1.000
%
G90
G05
T1
X16.06Y-15.3
X16.06Y-25.0
X16.06Y-32.5
X16.06Y-39.6
X18.6Y-15.3
X18.6Y-25.0
X18.6Y-32.5
X18.6Y-39.6
X29.3Y-18.5
X29.3Y-21.04
X29.3Y-23.58
X29.3Y-26.12
X29.3Y-28.66
X29.3Y-31.2
X29.3Y-33.74
X29.3Y-36.28
X44.6Y-18.5
X44.6Y-21.04
X44.6Y-23.58
X44.6Y-26.12
X44.6Y-28.66
X44.6Y-31.2
X44.6Y-33.74
X44.6Y-36.28
M30
