%TF.GenerationSoftware,KiCad,Pcbnew,9.0.0*%
%TF.CreationDate,2025-10-30T10:02:15-05:00*%
%TF.ProjectId,M_dulo Cabeza,4df36475-6c6f-4204-9361-62657a612e6b,rev?*%
%TF.SameCoordinates,Original*%
%TF.FileFunction,Copper,L2,Bot*%
%TF.FilePolarity,Positive*%
%FSLAX46Y46*%
G04 Gerber Fmt 4.6, Leading zero omitted, Abs format (unit mm)*
G04 Created by KiCad (PCBNEW 9.0.0) date 2025-10-30 10:02:15*
%MOMM*%
%LPD*%
G01*
G04 APERTURE LIST*
%TA.AperFunction,ComponentPad*%
%ADD10R,1.700000X1.700000*%
%TD*%
%TA.AperFunction,ComponentPad*%
%ADD11O,1.700000X1.700000*%
%TD*%
%TA.AperFunction,Conductor*%
%ADD12C,0.900000*%
%TD*%
G04 APERTURE END LIST*
D10*
%TO.P,ESP2,1,Pin_1*%
%TO.N,V+*%
X44600000Y-18500000D03*
D11*
%TO.P,ESP2,2,Pin_2*%
%TO.N,GND*%
X44600000Y-21040000D03*
%TO.P,ESP2,3,Pin_3*%
%TO.N,unconnected-(ESP2-Pin_3-Pad3)*%
X44600000Y-23580000D03*
%TO.P,ESP2,4,Pin_4*%
%TO.N,unconnected-(ESP2-Pin_4-Pad4)*%
X44600000Y-26120000D03*
%TO.P,ESP2,5,Pin_5*%
%TO.N,unconnected-(ESP2-Pin_5-Pad5)*%
X44600000Y-28660000D03*
%TO.P,ESP2,6,Pin_6*%
%TO.N,unconnected-(ESP2-Pin_6-Pad6)*%
X44600000Y-31200000D03*
%TO.P,ESP2,7,Pin_7*%
%TO.N,unconnected-(ESP2-Pin_7-Pad7)*%
X44600000Y-33740000D03*
%TO.P,ESP2,8,Pin_8*%
%TO.N,unconnected-(ESP2-Pin_8-Pad8)*%
X44600000Y-36280000D03*
%TD*%
D10*
%TO.P,ESP1,1,Pin_1*%
%TO.N,unconnected-(ESP1-Pin_1-Pad1)*%
X29300000Y-18500000D03*
D11*
%TO.P,ESP1,2,Pin_2*%
%TO.N,unconnected-(ESP1-Pin_2-Pad2)*%
X29300000Y-21040000D03*
%TO.P,ESP1,3,Pin_3*%
%TO.N,unconnected-(ESP1-Pin_3-Pad3)*%
X29300000Y-23580000D03*
%TO.P,ESP1,4,Pin_4*%
%TO.N,unconnected-(ESP1-Pin_4-Pad4)*%
X29300000Y-26120000D03*
%TO.P,ESP1,5,Pin_5*%
%TO.N,unconnected-(ESP1-Pin_5-Pad5)*%
X29300000Y-28660000D03*
%TO.P,ESP1,6,Pin_6*%
%TO.N,unconnected-(ESP1-Pin_6-Pad6)*%
X29300000Y-31200000D03*
%TO.P,ESP1,7,Pin_7*%
%TO.N,unconnected-(ESP1-Pin_7-Pad7)*%
X29300000Y-33740000D03*
%TO.P,ESP1,8,Pin_8*%
%TO.N,unconnected-(ESP1-Pin_8-Pad8)*%
X29300000Y-36280000D03*
%TD*%
D10*
%TO.P,SUP1,1,Pin_1*%
%TO.N,GND*%
X16060000Y-25000000D03*
D11*
%TO.P,SUP1,2,Pin_2*%
%TO.N,VCC*%
X18600000Y-25000000D03*
%TD*%
D10*
%TO.P,SWITCH1,1,Pin_1*%
%TO.N,V+*%
X18600000Y-15300000D03*
D11*
%TO.P,SWITCH1,2,Pin_2*%
%TO.N,VCC*%
X16060000Y-15300000D03*
%TD*%
D10*
%TO.P,SUPCAM1,1,Pin_1*%
%TO.N,GND*%
X16060000Y-39600000D03*
D11*
%TO.P,SUPCAM1,2,Pin_2*%
%TO.N,V+*%
X18600000Y-39600000D03*
%TD*%
D10*
%TO.P,SUP2,1,Pin_1*%
%TO.N,GND*%
X16060000Y-32500000D03*
D11*
%TO.P,SUP2,2,Pin_2*%
%TO.N,VCC*%
X18600000Y-32500000D03*
%TD*%
D12*
%TO.N,V+*%
X18600000Y-35600000D02*
X18600000Y-39600000D01*
X24100000Y-13200000D02*
X42800000Y-13200000D01*
X42800000Y-13200000D02*
X44600000Y-15000000D01*
X22000000Y-15300000D02*
X24100000Y-13200000D01*
X18600000Y-15300000D02*
X22000000Y-15300000D01*
X44600000Y-15000000D02*
X44600000Y-18500000D01*
X21300000Y-18000000D02*
X18600000Y-15300000D01*
X21300000Y-32900000D02*
X21300000Y-18000000D01*
X18600000Y-35600000D02*
X21300000Y-32900000D01*
%TO.N,VCC*%
X16060000Y-21998000D02*
X16060000Y-15300000D01*
X18600000Y-24538000D02*
X16060000Y-21998000D01*
X18600000Y-25000000D02*
X18600000Y-24538000D01*
X18600000Y-25000000D02*
X18600000Y-32500000D01*
%TD*%
%TA.AperFunction,Conductor*%
%TO.N,GND*%
G36*
X23647230Y-12520185D02*
G01*
X23692985Y-12572989D01*
X23702929Y-12642147D01*
X23673904Y-12705703D01*
X23667872Y-12712181D01*
X21766873Y-14613181D01*
X21705550Y-14646666D01*
X21679192Y-14649500D01*
X19774500Y-14649500D01*
X19707461Y-14629815D01*
X19661706Y-14577011D01*
X19650500Y-14525500D01*
X19650500Y-14430249D01*
X19650499Y-14430247D01*
X19638868Y-14371770D01*
X19638867Y-14371769D01*
X19594552Y-14305447D01*
X19528230Y-14261132D01*
X19528229Y-14261131D01*
X19469752Y-14249500D01*
X19469748Y-14249500D01*
X17730252Y-14249500D01*
X17730247Y-14249500D01*
X17671770Y-14261131D01*
X17671769Y-14261132D01*
X17605447Y-14305447D01*
X17561132Y-14371769D01*
X17561131Y-14371770D01*
X17549500Y-14430247D01*
X17549500Y-16169752D01*
X17561131Y-16228229D01*
X17561132Y-16228230D01*
X17605447Y-16294552D01*
X17671769Y-16338867D01*
X17671770Y-16338868D01*
X17730247Y-16350499D01*
X17730250Y-16350500D01*
X17730252Y-16350500D01*
X18679192Y-16350500D01*
X18746231Y-16370185D01*
X18766873Y-16386819D01*
X20613181Y-18233127D01*
X20646666Y-18294450D01*
X20649500Y-18320808D01*
X20649500Y-32579192D01*
X20629815Y-32646231D01*
X20613181Y-32666873D01*
X18094722Y-35185331D01*
X18094720Y-35185333D01*
X18073627Y-35216903D01*
X18065211Y-35229500D01*
X18048517Y-35254483D01*
X18023534Y-35291873D01*
X17974499Y-35410255D01*
X17974497Y-35410261D01*
X17949500Y-35535928D01*
X17949500Y-38713505D01*
X17929815Y-38780544D01*
X17913181Y-38801186D01*
X17784025Y-38930341D01*
X17784024Y-38930342D01*
X17669058Y-39102403D01*
X17589870Y-39293579D01*
X17589868Y-39293587D01*
X17549500Y-39496530D01*
X17549500Y-39703469D01*
X17589868Y-39906412D01*
X17589870Y-39906420D01*
X17669058Y-40097596D01*
X17784024Y-40269657D01*
X17930342Y-40415975D01*
X17930345Y-40415977D01*
X18102402Y-40530941D01*
X18293580Y-40610130D01*
X18435684Y-40638396D01*
X18496530Y-40650499D01*
X18496534Y-40650500D01*
X18496535Y-40650500D01*
X18703466Y-40650500D01*
X18703467Y-40650499D01*
X18906420Y-40610130D01*
X19097598Y-40530941D01*
X19269655Y-40415977D01*
X19415977Y-40269655D01*
X19530941Y-40097598D01*
X19610130Y-39906420D01*
X19650500Y-39703465D01*
X19650500Y-39496535D01*
X19610130Y-39293580D01*
X19530941Y-39102402D01*
X19415977Y-38930345D01*
X19415975Y-38930342D01*
X19286819Y-38801186D01*
X19253334Y-38739863D01*
X19250500Y-38713505D01*
X19250500Y-36176530D01*
X28249500Y-36176530D01*
X28249500Y-36383469D01*
X28289868Y-36586412D01*
X28289870Y-36586420D01*
X28369058Y-36777596D01*
X28484024Y-36949657D01*
X28630342Y-37095975D01*
X28630345Y-37095977D01*
X28802402Y-37210941D01*
X28993580Y-37290130D01*
X29196530Y-37330499D01*
X29196534Y-37330500D01*
X29196535Y-37330500D01*
X29403466Y-37330500D01*
X29403467Y-37330499D01*
X29606420Y-37290130D01*
X29797598Y-37210941D01*
X29969655Y-37095977D01*
X30115977Y-36949655D01*
X30230941Y-36777598D01*
X30310130Y-36586420D01*
X30350500Y-36383465D01*
X30350500Y-36176535D01*
X30350499Y-36176530D01*
X43549500Y-36176530D01*
X43549500Y-36383469D01*
X43589868Y-36586412D01*
X43589870Y-36586420D01*
X43669058Y-36777596D01*
X43784024Y-36949657D01*
X43930342Y-37095975D01*
X43930345Y-37095977D01*
X44102402Y-37210941D01*
X44293580Y-37290130D01*
X44496530Y-37330499D01*
X44496534Y-37330500D01*
X44496535Y-37330500D01*
X44703466Y-37330500D01*
X44703467Y-37330499D01*
X44906420Y-37290130D01*
X45097598Y-37210941D01*
X45269655Y-37095977D01*
X45415977Y-36949655D01*
X45530941Y-36777598D01*
X45610130Y-36586420D01*
X45650500Y-36383465D01*
X45650500Y-36176535D01*
X45610130Y-35973580D01*
X45530941Y-35782402D01*
X45415977Y-35610345D01*
X45415975Y-35610342D01*
X45269657Y-35464024D01*
X45183626Y-35406541D01*
X45097598Y-35349059D01*
X44906420Y-35269870D01*
X44906412Y-35269868D01*
X44703469Y-35229500D01*
X44703465Y-35229500D01*
X44496535Y-35229500D01*
X44496530Y-35229500D01*
X44293587Y-35269868D01*
X44293579Y-35269870D01*
X44102403Y-35349058D01*
X43930342Y-35464024D01*
X43784024Y-35610342D01*
X43669058Y-35782403D01*
X43589870Y-35973579D01*
X43589868Y-35973587D01*
X43549500Y-36176530D01*
X30350499Y-36176530D01*
X30310130Y-35973580D01*
X30230941Y-35782402D01*
X30115977Y-35610345D01*
X30115975Y-35610342D01*
X29969657Y-35464024D01*
X29883626Y-35406541D01*
X29797598Y-35349059D01*
X29606420Y-35269870D01*
X29606412Y-35269868D01*
X29403469Y-35229500D01*
X29403465Y-35229500D01*
X29196535Y-35229500D01*
X29196530Y-35229500D01*
X28993587Y-35269868D01*
X28993579Y-35269870D01*
X28802403Y-35349058D01*
X28630342Y-35464024D01*
X28484024Y-35610342D01*
X28369058Y-35782403D01*
X28289870Y-35973579D01*
X28289868Y-35973587D01*
X28249500Y-36176530D01*
X19250500Y-36176530D01*
X19250500Y-35920808D01*
X19270185Y-35853769D01*
X19286819Y-35833127D01*
X21483417Y-33636530D01*
X28249500Y-33636530D01*
X28249500Y-33843469D01*
X28289868Y-34046412D01*
X28289870Y-34046420D01*
X28369058Y-34237596D01*
X28484024Y-34409657D01*
X28630342Y-34555975D01*
X28630345Y-34555977D01*
X28802402Y-34670941D01*
X28993580Y-34750130D01*
X29196530Y-34790499D01*
X29196534Y-34790500D01*
X29196535Y-34790500D01*
X29403466Y-34790500D01*
X29403467Y-34790499D01*
X29606420Y-34750130D01*
X29797598Y-34670941D01*
X29969655Y-34555977D01*
X30115977Y-34409655D01*
X30230941Y-34237598D01*
X30310130Y-34046420D01*
X30350500Y-33843465D01*
X30350500Y-33636535D01*
X30350499Y-33636530D01*
X43549500Y-33636530D01*
X43549500Y-33843469D01*
X43589868Y-34046412D01*
X43589870Y-34046420D01*
X43669058Y-34237596D01*
X43784024Y-34409657D01*
X43930342Y-34555975D01*
X43930345Y-34555977D01*
X44102402Y-34670941D01*
X44293580Y-34750130D01*
X44496530Y-34790499D01*
X44496534Y-34790500D01*
X44496535Y-34790500D01*
X44703466Y-34790500D01*
X44703467Y-34790499D01*
X44906420Y-34750130D01*
X45097598Y-34670941D01*
X45269655Y-34555977D01*
X45415977Y-34409655D01*
X45530941Y-34237598D01*
X45610130Y-34046420D01*
X45650500Y-33843465D01*
X45650500Y-33636535D01*
X45610130Y-33433580D01*
X45530941Y-33242402D01*
X45415977Y-33070345D01*
X45415975Y-33070342D01*
X45269657Y-32924024D01*
X45183626Y-32866541D01*
X45097598Y-32809059D01*
X44906420Y-32729870D01*
X44906412Y-32729868D01*
X44703469Y-32689500D01*
X44703465Y-32689500D01*
X44496535Y-32689500D01*
X44496530Y-32689500D01*
X44293587Y-32729868D01*
X44293579Y-32729870D01*
X44102403Y-32809058D01*
X43930342Y-32924024D01*
X43784024Y-33070342D01*
X43669058Y-33242403D01*
X43589870Y-33433579D01*
X43589868Y-33433587D01*
X43549500Y-33636530D01*
X30350499Y-33636530D01*
X30310130Y-33433580D01*
X30230941Y-33242402D01*
X30115977Y-33070345D01*
X30115975Y-33070342D01*
X29969657Y-32924024D01*
X29883626Y-32866541D01*
X29797598Y-32809059D01*
X29606420Y-32729870D01*
X29606412Y-32729868D01*
X29403469Y-32689500D01*
X29403465Y-32689500D01*
X29196535Y-32689500D01*
X29196530Y-32689500D01*
X28993587Y-32729868D01*
X28993579Y-32729870D01*
X28802403Y-32809058D01*
X28630342Y-32924024D01*
X28484024Y-33070342D01*
X28369058Y-33242403D01*
X28289870Y-33433579D01*
X28289868Y-33433587D01*
X28249500Y-33636530D01*
X21483417Y-33636530D01*
X21577185Y-33542762D01*
X21805272Y-33314674D01*
X21805277Y-33314669D01*
X21876466Y-33208126D01*
X21925501Y-33089743D01*
X21928451Y-33074916D01*
X21929361Y-33070345D01*
X21950499Y-32964073D01*
X21950500Y-32964071D01*
X21950500Y-31096530D01*
X28249500Y-31096530D01*
X28249500Y-31303469D01*
X28289868Y-31506412D01*
X28289870Y-31506420D01*
X28341183Y-31630301D01*
X28369059Y-31697598D01*
X28426541Y-31783626D01*
X28484024Y-31869657D01*
X28630342Y-32015975D01*
X28630345Y-32015977D01*
X28802402Y-32130941D01*
X28993580Y-32210130D01*
X29196530Y-32250499D01*
X29196534Y-32250500D01*
X29196535Y-32250500D01*
X29403466Y-32250500D01*
X29403467Y-32250499D01*
X29606420Y-32210130D01*
X29797598Y-32130941D01*
X29969655Y-32015977D01*
X30115977Y-31869655D01*
X30230941Y-31697598D01*
X30310130Y-31506420D01*
X30350500Y-31303465D01*
X30350500Y-31096535D01*
X30350499Y-31096530D01*
X43549500Y-31096530D01*
X43549500Y-31303469D01*
X43589868Y-31506412D01*
X43589870Y-31506420D01*
X43641183Y-31630301D01*
X43669059Y-31697598D01*
X43726541Y-31783626D01*
X43784024Y-31869657D01*
X43930342Y-32015975D01*
X43930345Y-32015977D01*
X44102402Y-32130941D01*
X44293580Y-32210130D01*
X44496530Y-32250499D01*
X44496534Y-32250500D01*
X44496535Y-32250500D01*
X44703466Y-32250500D01*
X44703467Y-32250499D01*
X44906420Y-32210130D01*
X45097598Y-32130941D01*
X45269655Y-32015977D01*
X45415977Y-31869655D01*
X45530941Y-31697598D01*
X45610130Y-31506420D01*
X45650500Y-31303465D01*
X45650500Y-31096535D01*
X45610130Y-30893580D01*
X45530941Y-30702402D01*
X45415977Y-30530345D01*
X45415975Y-30530342D01*
X45269657Y-30384024D01*
X45183626Y-30326541D01*
X45097598Y-30269059D01*
X44906420Y-30189870D01*
X44906412Y-30189868D01*
X44703469Y-30149500D01*
X44703465Y-30149500D01*
X44496535Y-30149500D01*
X44496530Y-30149500D01*
X44293587Y-30189868D01*
X44293579Y-30189870D01*
X44102403Y-30269058D01*
X43930342Y-30384024D01*
X43784024Y-30530342D01*
X43669058Y-30702403D01*
X43589870Y-30893579D01*
X43589868Y-30893587D01*
X43549500Y-31096530D01*
X30350499Y-31096530D01*
X30310130Y-30893580D01*
X30230941Y-30702402D01*
X30115977Y-30530345D01*
X30115975Y-30530342D01*
X29969657Y-30384024D01*
X29883626Y-30326541D01*
X29797598Y-30269059D01*
X29606420Y-30189870D01*
X29606412Y-30189868D01*
X29403469Y-30149500D01*
X29403465Y-30149500D01*
X29196535Y-30149500D01*
X29196530Y-30149500D01*
X28993587Y-30189868D01*
X28993579Y-30189870D01*
X28802403Y-30269058D01*
X28630342Y-30384024D01*
X28484024Y-30530342D01*
X28369058Y-30702403D01*
X28289870Y-30893579D01*
X28289868Y-30893587D01*
X28249500Y-31096530D01*
X21950500Y-31096530D01*
X21950500Y-28556530D01*
X28249500Y-28556530D01*
X28249500Y-28763469D01*
X28289868Y-28966412D01*
X28289870Y-28966420D01*
X28369058Y-29157596D01*
X28484024Y-29329657D01*
X28630342Y-29475975D01*
X28630345Y-29475977D01*
X28802402Y-29590941D01*
X28993580Y-29670130D01*
X29196530Y-29710499D01*
X29196534Y-29710500D01*
X29196535Y-29710500D01*
X29403466Y-29710500D01*
X29403467Y-29710499D01*
X29606420Y-29670130D01*
X29797598Y-29590941D01*
X29969655Y-29475977D01*
X30115977Y-29329655D01*
X30230941Y-29157598D01*
X30310130Y-28966420D01*
X30350500Y-28763465D01*
X30350500Y-28556535D01*
X30350499Y-28556530D01*
X43549500Y-28556530D01*
X43549500Y-28763469D01*
X43589868Y-28966412D01*
X43589870Y-28966420D01*
X43669058Y-29157596D01*
X43784024Y-29329657D01*
X43930342Y-29475975D01*
X43930345Y-29475977D01*
X44102402Y-29590941D01*
X44293580Y-29670130D01*
X44496530Y-29710499D01*
X44496534Y-29710500D01*
X44496535Y-29710500D01*
X44703466Y-29710500D01*
X44703467Y-29710499D01*
X44906420Y-29670130D01*
X45097598Y-29590941D01*
X45269655Y-29475977D01*
X45415977Y-29329655D01*
X45530941Y-29157598D01*
X45610130Y-28966420D01*
X45650500Y-28763465D01*
X45650500Y-28556535D01*
X45610130Y-28353580D01*
X45530941Y-28162402D01*
X45415977Y-27990345D01*
X45415975Y-27990342D01*
X45269657Y-27844024D01*
X45183626Y-27786541D01*
X45097598Y-27729059D01*
X44906420Y-27649870D01*
X44906412Y-27649868D01*
X44703469Y-27609500D01*
X44703465Y-27609500D01*
X44496535Y-27609500D01*
X44496530Y-27609500D01*
X44293587Y-27649868D01*
X44293579Y-27649870D01*
X44102403Y-27729058D01*
X43930342Y-27844024D01*
X43784024Y-27990342D01*
X43669058Y-28162403D01*
X43589870Y-28353579D01*
X43589868Y-28353587D01*
X43549500Y-28556530D01*
X30350499Y-28556530D01*
X30310130Y-28353580D01*
X30230941Y-28162402D01*
X30115977Y-27990345D01*
X30115975Y-27990342D01*
X29969657Y-27844024D01*
X29883626Y-27786541D01*
X29797598Y-27729059D01*
X29606420Y-27649870D01*
X29606412Y-27649868D01*
X29403469Y-27609500D01*
X29403465Y-27609500D01*
X29196535Y-27609500D01*
X29196530Y-27609500D01*
X28993587Y-27649868D01*
X28993579Y-27649870D01*
X28802403Y-27729058D01*
X28630342Y-27844024D01*
X28484024Y-27990342D01*
X28369058Y-28162403D01*
X28289870Y-28353579D01*
X28289868Y-28353587D01*
X28249500Y-28556530D01*
X21950500Y-28556530D01*
X21950500Y-26016530D01*
X28249500Y-26016530D01*
X28249500Y-26223469D01*
X28289868Y-26426412D01*
X28289870Y-26426420D01*
X28369058Y-26617596D01*
X28484024Y-26789657D01*
X28630342Y-26935975D01*
X28630345Y-26935977D01*
X28802402Y-27050941D01*
X28993580Y-27130130D01*
X29196530Y-27170499D01*
X29196534Y-27170500D01*
X29196535Y-27170500D01*
X29403466Y-27170500D01*
X29403467Y-27170499D01*
X29606420Y-27130130D01*
X29797598Y-27050941D01*
X29969655Y-26935977D01*
X30115977Y-26789655D01*
X30230941Y-26617598D01*
X30310130Y-26426420D01*
X30350500Y-26223465D01*
X30350500Y-26016535D01*
X30350499Y-26016530D01*
X43549500Y-26016530D01*
X43549500Y-26223469D01*
X43589868Y-26426412D01*
X43589870Y-26426420D01*
X43669058Y-26617596D01*
X43784024Y-26789657D01*
X43930342Y-26935975D01*
X43930345Y-26935977D01*
X44102402Y-27050941D01*
X44293580Y-27130130D01*
X44496530Y-27170499D01*
X44496534Y-27170500D01*
X44496535Y-27170500D01*
X44703466Y-27170500D01*
X44703467Y-27170499D01*
X44906420Y-27130130D01*
X45097598Y-27050941D01*
X45269655Y-26935977D01*
X45415977Y-26789655D01*
X45530941Y-26617598D01*
X45610130Y-26426420D01*
X45650500Y-26223465D01*
X45650500Y-26016535D01*
X45610130Y-25813580D01*
X45530941Y-25622402D01*
X45415977Y-25450345D01*
X45415975Y-25450342D01*
X45269657Y-25304024D01*
X45183626Y-25246541D01*
X45097598Y-25189059D01*
X44906420Y-25109870D01*
X44906412Y-25109868D01*
X44703469Y-25069500D01*
X44703465Y-25069500D01*
X44496535Y-25069500D01*
X44496530Y-25069500D01*
X44293587Y-25109868D01*
X44293579Y-25109870D01*
X44102403Y-25189058D01*
X43930342Y-25304024D01*
X43784024Y-25450342D01*
X43669058Y-25622403D01*
X43589870Y-25813579D01*
X43589868Y-25813587D01*
X43549500Y-26016530D01*
X30350499Y-26016530D01*
X30310130Y-25813580D01*
X30230941Y-25622402D01*
X30115977Y-25450345D01*
X30115975Y-25450342D01*
X29969657Y-25304024D01*
X29883626Y-25246541D01*
X29797598Y-25189059D01*
X29606420Y-25109870D01*
X29606412Y-25109868D01*
X29403469Y-25069500D01*
X29403465Y-25069500D01*
X29196535Y-25069500D01*
X29196530Y-25069500D01*
X28993587Y-25109868D01*
X28993579Y-25109870D01*
X28802403Y-25189058D01*
X28630342Y-25304024D01*
X28484024Y-25450342D01*
X28369058Y-25622403D01*
X28289870Y-25813579D01*
X28289868Y-25813587D01*
X28249500Y-26016530D01*
X21950500Y-26016530D01*
X21950500Y-23476530D01*
X28249500Y-23476530D01*
X28249500Y-23683469D01*
X28289868Y-23886412D01*
X28289870Y-23886420D01*
X28369058Y-24077596D01*
X28484024Y-24249657D01*
X28630342Y-24395975D01*
X28630345Y-24395977D01*
X28802402Y-24510941D01*
X28993580Y-24590130D01*
X29196530Y-24630499D01*
X29196534Y-24630500D01*
X29196535Y-24630500D01*
X29403466Y-24630500D01*
X29403467Y-24630499D01*
X29606420Y-24590130D01*
X29797598Y-24510941D01*
X29969655Y-24395977D01*
X30115977Y-24249655D01*
X30230941Y-24077598D01*
X30310130Y-23886420D01*
X30350500Y-23683465D01*
X30350500Y-23476535D01*
X30350499Y-23476530D01*
X43549500Y-23476530D01*
X43549500Y-23683469D01*
X43589868Y-23886412D01*
X43589870Y-23886420D01*
X43669058Y-24077596D01*
X43784024Y-24249657D01*
X43930342Y-24395975D01*
X43930345Y-24395977D01*
X44102402Y-24510941D01*
X44293580Y-24590130D01*
X44496530Y-24630499D01*
X44496534Y-24630500D01*
X44496535Y-24630500D01*
X44703466Y-24630500D01*
X44703467Y-24630499D01*
X44906420Y-24590130D01*
X45097598Y-24510941D01*
X45269655Y-24395977D01*
X45415977Y-24249655D01*
X45530941Y-24077598D01*
X45610130Y-23886420D01*
X45650500Y-23683465D01*
X45650500Y-23476535D01*
X45610130Y-23273580D01*
X45530941Y-23082402D01*
X45415977Y-22910345D01*
X45415975Y-22910342D01*
X45269657Y-22764024D01*
X45183626Y-22706541D01*
X45097598Y-22649059D01*
X44906420Y-22569870D01*
X44906412Y-22569868D01*
X44703469Y-22529500D01*
X44703465Y-22529500D01*
X44496535Y-22529500D01*
X44496530Y-22529500D01*
X44293587Y-22569868D01*
X44293579Y-22569870D01*
X44102403Y-22649058D01*
X43930342Y-22764024D01*
X43784024Y-22910342D01*
X43669058Y-23082403D01*
X43589870Y-23273579D01*
X43589868Y-23273587D01*
X43549500Y-23476530D01*
X30350499Y-23476530D01*
X30310130Y-23273580D01*
X30230941Y-23082402D01*
X30115977Y-22910345D01*
X30115975Y-22910342D01*
X29969657Y-22764024D01*
X29883626Y-22706541D01*
X29797598Y-22649059D01*
X29606420Y-22569870D01*
X29606412Y-22569868D01*
X29403469Y-22529500D01*
X29403465Y-22529500D01*
X29196535Y-22529500D01*
X29196530Y-22529500D01*
X28993587Y-22569868D01*
X28993579Y-22569870D01*
X28802403Y-22649058D01*
X28630342Y-22764024D01*
X28484024Y-22910342D01*
X28369058Y-23082403D01*
X28289870Y-23273579D01*
X28289868Y-23273587D01*
X28249500Y-23476530D01*
X21950500Y-23476530D01*
X21950500Y-20936530D01*
X28249500Y-20936530D01*
X28249500Y-21143469D01*
X28289868Y-21346412D01*
X28289870Y-21346420D01*
X28369058Y-21537596D01*
X28484024Y-21709657D01*
X28630342Y-21855975D01*
X28630345Y-21855977D01*
X28802402Y-21970941D01*
X28993580Y-22050130D01*
X29196530Y-22090499D01*
X29196534Y-22090500D01*
X29196535Y-22090500D01*
X29403466Y-22090500D01*
X29403467Y-22090499D01*
X29606420Y-22050130D01*
X29797598Y-21970941D01*
X29969655Y-21855977D01*
X30115977Y-21709655D01*
X30230941Y-21537598D01*
X30231036Y-21537368D01*
X30271368Y-21440000D01*
X43629173Y-21440000D01*
X43669500Y-21537358D01*
X43669505Y-21537368D01*
X43784410Y-21709335D01*
X43784413Y-21709339D01*
X43930660Y-21855586D01*
X43930664Y-21855589D01*
X44102631Y-21970494D01*
X44102641Y-21970499D01*
X44199999Y-22010826D01*
X44200000Y-22010826D01*
X45000000Y-22010826D01*
X45097358Y-21970499D01*
X45097368Y-21970494D01*
X45269335Y-21855589D01*
X45269339Y-21855586D01*
X45415586Y-21709339D01*
X45415589Y-21709335D01*
X45530494Y-21537368D01*
X45530499Y-21537358D01*
X45570827Y-21440000D01*
X45000000Y-21440000D01*
X45000000Y-22010826D01*
X44200000Y-22010826D01*
X44200000Y-21440000D01*
X43629173Y-21440000D01*
X30271368Y-21440000D01*
X30296732Y-21378766D01*
X30296732Y-21378765D01*
X30310130Y-21346420D01*
X30350500Y-21143465D01*
X30350500Y-20974174D01*
X44100000Y-20974174D01*
X44100000Y-21105826D01*
X44134075Y-21232993D01*
X44199901Y-21347007D01*
X44292993Y-21440099D01*
X44407007Y-21505925D01*
X44534174Y-21540000D01*
X44665826Y-21540000D01*
X44792993Y-21505925D01*
X44907007Y-21440099D01*
X45000099Y-21347007D01*
X45065925Y-21232993D01*
X45100000Y-21105826D01*
X45100000Y-20974174D01*
X45065925Y-20847007D01*
X45000099Y-20732993D01*
X44907106Y-20640000D01*
X45000000Y-20640000D01*
X45570827Y-20640000D01*
X45570826Y-20639999D01*
X45530499Y-20542641D01*
X45530494Y-20542631D01*
X45415589Y-20370664D01*
X45415586Y-20370660D01*
X45269339Y-20224413D01*
X45269331Y-20224407D01*
X45097366Y-20109504D01*
X45000000Y-20069172D01*
X45000000Y-20640000D01*
X44907106Y-20640000D01*
X44907007Y-20639901D01*
X44792993Y-20574075D01*
X44665826Y-20540000D01*
X44534174Y-20540000D01*
X44407007Y-20574075D01*
X44292993Y-20639901D01*
X44199901Y-20732993D01*
X44134075Y-20847007D01*
X44100000Y-20974174D01*
X30350500Y-20974174D01*
X30350500Y-20936535D01*
X30310130Y-20733580D01*
X30309887Y-20732993D01*
X30296732Y-20701233D01*
X30271368Y-20639999D01*
X43629173Y-20639999D01*
X43629173Y-20640000D01*
X44200000Y-20640000D01*
X44200000Y-20069172D01*
X44102633Y-20109504D01*
X43930668Y-20224407D01*
X43930660Y-20224413D01*
X43784413Y-20370660D01*
X43784410Y-20370664D01*
X43669505Y-20542631D01*
X43669500Y-20542641D01*
X43629173Y-20639999D01*
X30271368Y-20639999D01*
X30230942Y-20542403D01*
X30115975Y-20370342D01*
X29969657Y-20224024D01*
X29883626Y-20166541D01*
X29797598Y-20109059D01*
X29606420Y-20029870D01*
X29606412Y-20029868D01*
X29403469Y-19989500D01*
X29403465Y-19989500D01*
X29196535Y-19989500D01*
X29196530Y-19989500D01*
X28993587Y-20029868D01*
X28993579Y-20029870D01*
X28802403Y-20109058D01*
X28630342Y-20224024D01*
X28484024Y-20370342D01*
X28369058Y-20542403D01*
X28289870Y-20733579D01*
X28289868Y-20733587D01*
X28249500Y-20936530D01*
X21950500Y-20936530D01*
X21950500Y-17935928D01*
X21925502Y-17810261D01*
X21925501Y-17810260D01*
X21925501Y-17810256D01*
X21900335Y-17749500D01*
X21876466Y-17691874D01*
X21835289Y-17630247D01*
X28249500Y-17630247D01*
X28249500Y-19369752D01*
X28261131Y-19428229D01*
X28261132Y-19428230D01*
X28305447Y-19494552D01*
X28371769Y-19538867D01*
X28371770Y-19538868D01*
X28430247Y-19550499D01*
X28430250Y-19550500D01*
X28430252Y-19550500D01*
X30169750Y-19550500D01*
X30169751Y-19550499D01*
X30184568Y-19547552D01*
X30228229Y-19538868D01*
X30228229Y-19538867D01*
X30228231Y-19538867D01*
X30294552Y-19494552D01*
X30338867Y-19428231D01*
X30338867Y-19428229D01*
X30338868Y-19428229D01*
X30350499Y-19369752D01*
X30350500Y-19369750D01*
X30350500Y-17630249D01*
X30350499Y-17630247D01*
X30338868Y-17571770D01*
X30338867Y-17571769D01*
X30294552Y-17505447D01*
X30228230Y-17461132D01*
X30228229Y-17461131D01*
X30169752Y-17449500D01*
X30169748Y-17449500D01*
X28430252Y-17449500D01*
X28430247Y-17449500D01*
X28371770Y-17461131D01*
X28371769Y-17461132D01*
X28305447Y-17505447D01*
X28261132Y-17571769D01*
X28261131Y-17571770D01*
X28249500Y-17630247D01*
X21835289Y-17630247D01*
X21805277Y-17585331D01*
X21805275Y-17585329D01*
X21805273Y-17585326D01*
X21805272Y-17585325D01*
X20382127Y-16162181D01*
X20348642Y-16100858D01*
X20353626Y-16031166D01*
X20395498Y-15975233D01*
X20460962Y-15950816D01*
X20469808Y-15950500D01*
X22064071Y-15950500D01*
X22148615Y-15933682D01*
X22189744Y-15925501D01*
X22308127Y-15876465D01*
X22414669Y-15805277D01*
X24333127Y-13886819D01*
X24394450Y-13853334D01*
X24420808Y-13850500D01*
X42479192Y-13850500D01*
X42546231Y-13870185D01*
X42566873Y-13886819D01*
X43913181Y-15233127D01*
X43946666Y-15294450D01*
X43949500Y-15320808D01*
X43949500Y-17325500D01*
X43929815Y-17392539D01*
X43877011Y-17438294D01*
X43825500Y-17449500D01*
X43730247Y-17449500D01*
X43671770Y-17461131D01*
X43671769Y-17461132D01*
X43605447Y-17505447D01*
X43561132Y-17571769D01*
X43561131Y-17571770D01*
X43549500Y-17630247D01*
X43549500Y-19369752D01*
X43561131Y-19428229D01*
X43561132Y-19428230D01*
X43605447Y-19494552D01*
X43671769Y-19538867D01*
X43671770Y-19538868D01*
X43730247Y-19550499D01*
X43730250Y-19550500D01*
X43730252Y-19550500D01*
X45469750Y-19550500D01*
X45469751Y-19550499D01*
X45484568Y-19547552D01*
X45528229Y-19538868D01*
X45528229Y-19538867D01*
X45528231Y-19538867D01*
X45594552Y-19494552D01*
X45638867Y-19428231D01*
X45638867Y-19428229D01*
X45638868Y-19428229D01*
X45650499Y-19369752D01*
X45650500Y-19369750D01*
X45650500Y-17630249D01*
X45650499Y-17630247D01*
X45638868Y-17571770D01*
X45638867Y-17571769D01*
X45594552Y-17505447D01*
X45528230Y-17461132D01*
X45528229Y-17461131D01*
X45469752Y-17449500D01*
X45469748Y-17449500D01*
X45374500Y-17449500D01*
X45307461Y-17429815D01*
X45261706Y-17377011D01*
X45250500Y-17325500D01*
X45250500Y-14935928D01*
X45225502Y-14810261D01*
X45225501Y-14810260D01*
X45225501Y-14810256D01*
X45176465Y-14691873D01*
X45148153Y-14649501D01*
X45148153Y-14649500D01*
X45105277Y-14585331D01*
X45105271Y-14585324D01*
X43232128Y-12712181D01*
X43198643Y-12650858D01*
X43203627Y-12581166D01*
X43245499Y-12525233D01*
X43310963Y-12500816D01*
X43319809Y-12500500D01*
X48975500Y-12500500D01*
X49042539Y-12520185D01*
X49088294Y-12572989D01*
X49099500Y-12624500D01*
X49099500Y-42875500D01*
X49079815Y-42942539D01*
X49027011Y-42988294D01*
X48975500Y-42999500D01*
X12724500Y-42999500D01*
X12657461Y-42979815D01*
X12611706Y-42927011D01*
X12600500Y-42875500D01*
X12600500Y-40469702D01*
X15010000Y-40469702D01*
X15021602Y-40528033D01*
X15021603Y-40528034D01*
X15065808Y-40594191D01*
X15131965Y-40638396D01*
X15131966Y-40638397D01*
X15190297Y-40649999D01*
X15190301Y-40650000D01*
X15660000Y-40650000D01*
X16460000Y-40650000D01*
X16929699Y-40650000D01*
X16929702Y-40649999D01*
X16988033Y-40638397D01*
X16988034Y-40638396D01*
X17054191Y-40594191D01*
X17098396Y-40528034D01*
X17098397Y-40528033D01*
X17109999Y-40469702D01*
X17110000Y-40469699D01*
X17110000Y-40000000D01*
X16460000Y-40000000D01*
X16460000Y-40650000D01*
X15660000Y-40650000D01*
X15660000Y-40000000D01*
X15010000Y-40000000D01*
X15010000Y-40469702D01*
X12600500Y-40469702D01*
X12600500Y-39534174D01*
X15560000Y-39534174D01*
X15560000Y-39665826D01*
X15594075Y-39792993D01*
X15659901Y-39907007D01*
X15752993Y-40000099D01*
X15867007Y-40065925D01*
X15994174Y-40100000D01*
X16125826Y-40100000D01*
X16252993Y-40065925D01*
X16367007Y-40000099D01*
X16460099Y-39907007D01*
X16525925Y-39792993D01*
X16560000Y-39665826D01*
X16560000Y-39534174D01*
X16525925Y-39407007D01*
X16460099Y-39292993D01*
X16367106Y-39200000D01*
X16460000Y-39200000D01*
X17110000Y-39200000D01*
X17110000Y-38730301D01*
X17109999Y-38730297D01*
X17098397Y-38671966D01*
X17098396Y-38671965D01*
X17054191Y-38605808D01*
X16988034Y-38561603D01*
X16988033Y-38561602D01*
X16929702Y-38550000D01*
X16460000Y-38550000D01*
X16460000Y-39200000D01*
X16367106Y-39200000D01*
X16367007Y-39199901D01*
X16252993Y-39134075D01*
X16125826Y-39100000D01*
X15994174Y-39100000D01*
X15867007Y-39134075D01*
X15752993Y-39199901D01*
X15659901Y-39292993D01*
X15594075Y-39407007D01*
X15560000Y-39534174D01*
X12600500Y-39534174D01*
X12600500Y-38730297D01*
X15010000Y-38730297D01*
X15010000Y-39200000D01*
X15660000Y-39200000D01*
X15660000Y-38550000D01*
X15190297Y-38550000D01*
X15131966Y-38561602D01*
X15131965Y-38561603D01*
X15065808Y-38605808D01*
X15021603Y-38671965D01*
X15021602Y-38671966D01*
X15010000Y-38730297D01*
X12600500Y-38730297D01*
X12600500Y-33369702D01*
X15010000Y-33369702D01*
X15021602Y-33428033D01*
X15021603Y-33428034D01*
X15065808Y-33494191D01*
X15131965Y-33538396D01*
X15131966Y-33538397D01*
X15190297Y-33549999D01*
X15190301Y-33550000D01*
X15660000Y-33550000D01*
X16460000Y-33550000D01*
X16929699Y-33550000D01*
X16929702Y-33549999D01*
X16988033Y-33538397D01*
X16988034Y-33538396D01*
X17054191Y-33494191D01*
X17098396Y-33428034D01*
X17098397Y-33428033D01*
X17109999Y-33369702D01*
X17110000Y-33369699D01*
X17110000Y-32900000D01*
X16460000Y-32900000D01*
X16460000Y-33550000D01*
X15660000Y-33550000D01*
X15660000Y-32900000D01*
X15010000Y-32900000D01*
X15010000Y-33369702D01*
X12600500Y-33369702D01*
X12600500Y-32434174D01*
X15560000Y-32434174D01*
X15560000Y-32565826D01*
X15594075Y-32692993D01*
X15659901Y-32807007D01*
X15752993Y-32900099D01*
X15867007Y-32965925D01*
X15994174Y-33000000D01*
X16125826Y-33000000D01*
X16252993Y-32965925D01*
X16367007Y-32900099D01*
X16460099Y-32807007D01*
X16525925Y-32692993D01*
X16560000Y-32565826D01*
X16560000Y-32434174D01*
X16525925Y-32307007D01*
X16460099Y-32192993D01*
X16367106Y-32100000D01*
X16460000Y-32100000D01*
X17110000Y-32100000D01*
X17110000Y-31630301D01*
X17109999Y-31630297D01*
X17098397Y-31571966D01*
X17098396Y-31571965D01*
X17054191Y-31505808D01*
X16988034Y-31461603D01*
X16988033Y-31461602D01*
X16929702Y-31450000D01*
X16460000Y-31450000D01*
X16460000Y-32100000D01*
X16367106Y-32100000D01*
X16367007Y-32099901D01*
X16252993Y-32034075D01*
X16125826Y-32000000D01*
X15994174Y-32000000D01*
X15867007Y-32034075D01*
X15752993Y-32099901D01*
X15659901Y-32192993D01*
X15594075Y-32307007D01*
X15560000Y-32434174D01*
X12600500Y-32434174D01*
X12600500Y-31630297D01*
X15010000Y-31630297D01*
X15010000Y-32100000D01*
X15660000Y-32100000D01*
X15660000Y-31450000D01*
X15190297Y-31450000D01*
X15131966Y-31461602D01*
X15131965Y-31461603D01*
X15065808Y-31505808D01*
X15021603Y-31571965D01*
X15021602Y-31571966D01*
X15010000Y-31630297D01*
X12600500Y-31630297D01*
X12600500Y-25869702D01*
X15010000Y-25869702D01*
X15021602Y-25928033D01*
X15021603Y-25928034D01*
X15065808Y-25994191D01*
X15131965Y-26038396D01*
X15131966Y-26038397D01*
X15190297Y-26049999D01*
X15190301Y-26050000D01*
X15660000Y-26050000D01*
X16460000Y-26050000D01*
X16929699Y-26050000D01*
X16929702Y-26049999D01*
X16988033Y-26038397D01*
X16988034Y-26038396D01*
X17054191Y-25994191D01*
X17098396Y-25928034D01*
X17098397Y-25928033D01*
X17109999Y-25869702D01*
X17110000Y-25869699D01*
X17110000Y-25400000D01*
X16460000Y-25400000D01*
X16460000Y-26050000D01*
X15660000Y-26050000D01*
X15660000Y-25400000D01*
X15010000Y-25400000D01*
X15010000Y-25869702D01*
X12600500Y-25869702D01*
X12600500Y-24934174D01*
X15560000Y-24934174D01*
X15560000Y-25065826D01*
X15594075Y-25192993D01*
X15659901Y-25307007D01*
X15752993Y-25400099D01*
X15867007Y-25465925D01*
X15994174Y-25500000D01*
X16125826Y-25500000D01*
X16252993Y-25465925D01*
X16367007Y-25400099D01*
X16460099Y-25307007D01*
X16525925Y-25192993D01*
X16560000Y-25065826D01*
X16560000Y-24934174D01*
X16525925Y-24807007D01*
X16460099Y-24692993D01*
X16367007Y-24599901D01*
X16252993Y-24534075D01*
X16125826Y-24500000D01*
X15994174Y-24500000D01*
X15867007Y-24534075D01*
X15752993Y-24599901D01*
X15659901Y-24692993D01*
X15594075Y-24807007D01*
X15560000Y-24934174D01*
X12600500Y-24934174D01*
X12600500Y-24130297D01*
X15010000Y-24130297D01*
X15010000Y-24600000D01*
X15660000Y-24600000D01*
X15660000Y-23950000D01*
X15190297Y-23950000D01*
X15131966Y-23961602D01*
X15131965Y-23961603D01*
X15065808Y-24005808D01*
X15021603Y-24071965D01*
X15021602Y-24071966D01*
X15010000Y-24130297D01*
X12600500Y-24130297D01*
X12600500Y-15196530D01*
X15009500Y-15196530D01*
X15009500Y-15403469D01*
X15049868Y-15606412D01*
X15049870Y-15606420D01*
X15129059Y-15797598D01*
X15134190Y-15805277D01*
X15244024Y-15969657D01*
X15373181Y-16098814D01*
X15406666Y-16160137D01*
X15409500Y-16186495D01*
X15409500Y-22062069D01*
X15409500Y-22062071D01*
X15409499Y-22062071D01*
X15434497Y-22187738D01*
X15434499Y-22187744D01*
X15483534Y-22306125D01*
X15554726Y-22412673D01*
X15554727Y-22412674D01*
X16880373Y-23738319D01*
X16913858Y-23799642D01*
X16908874Y-23869334D01*
X16867002Y-23925267D01*
X16801538Y-23949684D01*
X16792692Y-23950000D01*
X16460000Y-23950000D01*
X16460000Y-24600000D01*
X17110000Y-24600000D01*
X17110000Y-24267308D01*
X17129685Y-24200269D01*
X17182489Y-24154514D01*
X17251647Y-24144570D01*
X17315203Y-24173595D01*
X17321681Y-24179627D01*
X17603265Y-24461211D01*
X17636750Y-24522534D01*
X17631766Y-24592226D01*
X17630146Y-24596343D01*
X17615999Y-24630499D01*
X17589871Y-24693579D01*
X17589869Y-24693583D01*
X17589867Y-24693587D01*
X17549500Y-24896530D01*
X17549500Y-25103469D01*
X17589868Y-25306412D01*
X17589870Y-25306420D01*
X17669058Y-25497596D01*
X17784024Y-25669657D01*
X17913181Y-25798814D01*
X17946666Y-25860137D01*
X17949500Y-25886495D01*
X17949500Y-31613505D01*
X17929815Y-31680544D01*
X17913181Y-31701186D01*
X17784025Y-31830341D01*
X17784024Y-31830342D01*
X17669058Y-32002403D01*
X17589870Y-32193579D01*
X17589868Y-32193587D01*
X17549500Y-32396530D01*
X17549500Y-32603469D01*
X17589868Y-32806412D01*
X17589870Y-32806420D01*
X17669058Y-32997596D01*
X17784024Y-33169657D01*
X17930342Y-33315975D01*
X17930345Y-33315977D01*
X18102402Y-33430941D01*
X18293580Y-33510130D01*
X18494016Y-33549999D01*
X18496530Y-33550499D01*
X18496534Y-33550500D01*
X18496535Y-33550500D01*
X18703466Y-33550500D01*
X18703467Y-33550499D01*
X18906420Y-33510130D01*
X19097598Y-33430941D01*
X19269655Y-33315977D01*
X19415977Y-33169655D01*
X19530941Y-32997598D01*
X19610130Y-32806420D01*
X19650500Y-32603465D01*
X19650500Y-32396535D01*
X19610130Y-32193580D01*
X19530941Y-32002402D01*
X19415977Y-31830345D01*
X19415975Y-31830342D01*
X19286819Y-31701186D01*
X19253334Y-31639863D01*
X19250500Y-31613505D01*
X19250500Y-25886495D01*
X19270185Y-25819456D01*
X19286819Y-25798814D01*
X19415974Y-25669658D01*
X19415975Y-25669657D01*
X19415977Y-25669655D01*
X19530941Y-25497598D01*
X19610130Y-25306420D01*
X19650500Y-25103465D01*
X19650500Y-24896535D01*
X19610130Y-24693580D01*
X19530941Y-24502402D01*
X19415977Y-24330345D01*
X19415975Y-24330342D01*
X19269657Y-24184024D01*
X19097597Y-24069058D01*
X19040843Y-24045550D01*
X19000616Y-24018670D01*
X16746819Y-21764873D01*
X16713334Y-21703550D01*
X16710500Y-21677192D01*
X16710500Y-16186495D01*
X16730185Y-16119456D01*
X16746819Y-16098814D01*
X16875974Y-15969658D01*
X16875975Y-15969657D01*
X16875977Y-15969655D01*
X16990941Y-15797598D01*
X17070130Y-15606420D01*
X17110500Y-15403465D01*
X17110500Y-15196535D01*
X17070130Y-14993580D01*
X16990941Y-14802402D01*
X16875977Y-14630345D01*
X16875975Y-14630342D01*
X16729657Y-14484024D01*
X16561655Y-14371770D01*
X16557598Y-14369059D01*
X16366420Y-14289870D01*
X16366412Y-14289868D01*
X16163469Y-14249500D01*
X16163465Y-14249500D01*
X15956535Y-14249500D01*
X15956530Y-14249500D01*
X15753587Y-14289868D01*
X15753579Y-14289870D01*
X15562403Y-14369058D01*
X15390342Y-14484024D01*
X15244024Y-14630342D01*
X15129058Y-14802403D01*
X15049870Y-14993579D01*
X15049868Y-14993587D01*
X15009500Y-15196530D01*
X12600500Y-15196530D01*
X12600500Y-12624500D01*
X12620185Y-12557461D01*
X12672989Y-12511706D01*
X12724500Y-12500500D01*
X23580191Y-12500500D01*
X23647230Y-12520185D01*
G37*
%TD.AperFunction*%
%TD*%
M02*
