M48
; DRILL file {KiCad 9.0.0} date 2025-10-03T22:23:01-0500
; FORMAT={-:-/ absolute / metric / decimal}
; #@! TF.CreationDate,2025-10-03T22:23:01-05:00
; #@! TF.GenerationSoftware,Kicad,Pcbnew,9.0.0
; #@! TF.FileFunction,Plated,1,2,PTH
FMAT,2
METRIC
; #@! TA.AperFunction,Plated,PTH,ComponentDrill
T1C1.000
%
G90
G05
T1
X3.8Y-25.3
X4.0Y-15.6
X4.0Y-18.14
X5.6Y-7.5
X6.34Y-25.3
X8.14Y-7.5
X8.88Y-25.3
X9.8Y-15.6
X9.8Y-18.14
X14.5Y-7.72
X14.5Y-10.26
X14.5Y-12.8
X14.5Y-15.34
X14.5Y-17.88
X14.5Y-20.42
X14.5Y-22.96
X14.5Y-25.5
X29.7Y-7.72
X29.7Y-10.26
X29.7Y-12.8
X29.7Y-15.34
X29.7Y-17.88
X29.7Y-20.42
X29.7Y-22.96
X29.7Y-25.5
M30
