<?xml version="1.0" encoding="UTF-8" standalone="no"?>
<svg
   xmlns:dc="http://purl.org/dc/elements/1.1/"
   xmlns:cc="http://creativecommons.org/ns#"
   xmlns:rdf="http://www.w3.org/1999/02/22-rdf-syntax-ns#"
   xmlns:svg="http://www.w3.org/2000/svg"
   xmlns="http://www.w3.org/2000/svg"
   xmlns:sodipodi="http://sodipodi.sourceforge.net/DTD/sodipodi-0.dtd"
   xmlns:inkscape="http://www.inkscape.org/namespaces/inkscape"
   version="1.1"
   width="297.0022mm"
   height="210.0072mm"
   viewBox="0.0000 0.0000 297.0022 210.0072"
   id="svg392"
   sodipodi:docname="Oscilatorio_1-B_Cu.svg"
   inkscape:version="0.92.0 r15299">
  <sodipodi:namedview
     pagecolor="#ffffff"
     bordercolor="#666666"
     borderopacity="1"
     objecttolerance="10"
     gridtolerance="10"
     guidetolerance="10"
     inkscape:pageopacity="0"
     inkscape:pageshadow="2"
     inkscape:window-width="1920"
     inkscape:window-height="1171"
     id="namedview394"
     showgrid="false"
     inkscape:zoom="4.7642465"
     inkscape:cx="61.081083"
     inkscape:cy="726.1908"
     inkscape:window-x="-9"
     inkscape:window-y="-9"
     inkscape:window-maximized="1"
     inkscape:current-layer="svg392" />
  <metadata
     id="metadata398">
    <rdf:RDF>
      <cc:Work
         rdf:about="">
        <dc:format>image/svg+xml</dc:format>
        <dc:type
           rdf:resource="http://purl.org/dc/dcmitype/StillImage" />
      </cc:Work>
    </rdf:RDF>
  </metadata>
  <defs
     id="defs396" />
  <title
     id="title10">SVG Image created as Oscilatorio_1-B_Cu.svg date 2025/03/31 14:17:16 </title>
  <desc
     id="desc12">Image generated by PCBNEW </desc>
  <g
     id="g979">
    <rect
       style="stroke-width:0.2694914"
       y="-8.0706002e-008"
       x="0"
       height="31.999317"
       width="32.04192"
       id="rect790" />
    <g
       style="fill:#ffffff;fill-opacity:1;stroke:#ffffff;stroke-linecap:round;stroke-linejoin:round;stroke-opacity:1;opacity:1"
       transform="matrix(1,0,0,-1,0,32)"
       id="g16">
      <path
         style="fill:#ffffff;fill-opacity:1;fill-rule:evenodd;stroke:none;opacity:1"
         d="m 3.85,25.45 h -1.7 v -1.7 h 1.7 z"
         id="path14"
         inkscape:connector-curvature="0" />
    </g>
    <g
       style="fill:#ffffff;fill-opacity:1;stroke:none;opacity:1"
       id="g62"
       transform="matrix(1,0,0,-1,0,32)">
      <circle
         cx="5.54"
         cy="24.6"
         r="0.85000002"
         id="circle18" />
      <circle
         cx="8.0799999"
         cy="24.6"
         r="0.85000002"
         id="circle20" />
      <path
         style="fill:#ffffff;fill-opacity:1;fill-rule:evenodd;stroke:none;opacity:1"
         d="m 11.95,5.33 v -1.7 h 1.7 v 1.7 z"
         id="path22"
         inkscape:connector-curvature="0" />
      <circle
         cx="12.8"
         cy="7.02"
         r="0.85000002"
         id="circle24" />
      <circle
         cx="12.8"
         cy="9.5600004"
         r="0.85000002"
         id="circle26" />
      <circle
         cx="12.8"
         cy="12.1"
         r="0.85000002"
         id="circle28" />
      <circle
         cx="12.8"
         cy="14.64"
         r="0.85000002"
         id="circle30" />
      <circle
         cx="12.8"
         cy="17.18"
         r="0.85000002"
         id="circle32" />
      <circle
         cx="12.8"
         cy="19.719999"
         r="0.85000002"
         id="circle34" />
      <circle
         cx="12.8"
         cy="22.26"
         r="0.85000002"
         id="circle36" />
      <circle
         cx="12.8"
         cy="24.799999"
         r="0.85000002"
         id="circle38" />
      <path
         style="fill:#ffffff;fill-opacity:1;fill-rule:evenodd;stroke:none;opacity:1"
         d="m 7.29,6.05 h 1.7 v 1.7 h -1.7 z"
         id="path40"
         inkscape:connector-curvature="0" />
      <circle
         cx="5.5999999"
         cy="6.9000001"
         r="0.85000002"
         id="circle42" />
      <path
         style="fill:#ffffff;fill-opacity:1;fill-rule:evenodd;stroke:none;opacity:1"
         d="m 27.15,5.35 v -1.7 h 1.7 v 1.7 z"
         id="path44"
         inkscape:connector-curvature="0" />
      <circle
         cx="28"
         cy="7.04"
         r="0.85000002"
         id="circle46" />
      <circle
         cx="28"
         cy="9.5799999"
         r="0.85000002"
         id="circle48" />
      <circle
         cx="28"
         cy="12.12"
         r="0.85000002"
         id="circle50" />
      <circle
         cx="28"
         cy="14.66"
         r="0.85000002"
         id="circle52" />
      <circle
         cx="28"
         cy="17.200001"
         r="0.85000002"
         id="circle54" />
      <circle
         cx="28"
         cy="19.74"
         r="0.85000002"
         id="circle56" />
      <circle
         cx="28"
         cy="22.280001"
         r="0.85000002"
         id="circle58" />
      <circle
         cx="28"
         cy="24.82"
         r="0.85000002"
         id="circle60" />
    </g>
    <g
       style="fill:none;stroke:#ffffff;stroke-width:1.20000005;stroke-linecap:round;stroke-linejoin:round;stroke-opacity:1;opacity:1"
       id="g66"
       transform="matrix(1,0,0,-1,0,32)">
      <path
         d="m 8.14,6.9 h 4.54"
         id="path64"
         inkscape:connector-curvature="0" />
    </g>
    <g
       style="fill:none;stroke:#ffffff;stroke-width:0.2;stroke-linecap:round;stroke-linejoin:round;stroke-opacity:1;opacity:1"
       id="g70"
       transform="matrix(1,0,0,-1,0,32)">
      <path
         d="M 8.14,24.54 8.08,24.6"
         id="path68"
         inkscape:connector-curvature="0" />
    </g>
    <g
       style="fill:none;stroke:#ffffff;stroke-width:1.20000005;stroke-linecap:round;stroke-linejoin:round;stroke-opacity:1;opacity:1"
       id="g74"
       transform="matrix(1,0,0,-1,0,32)">
      <path
         d="M 8.14,6.9 V 24.54"
         id="path72"
         inkscape:connector-curvature="0" />
    </g>
    <g
       style="fill:none;stroke:#ffffff;stroke-width:0.2;stroke-linecap:round;stroke-linejoin:round;stroke-opacity:1;opacity:1"
       id="g78"
       transform="matrix(1,0,0,-1,0,32)">
      <path
         d="M 12.68,6.9 12.8,7.02"
         id="path76"
         inkscape:connector-curvature="0" />
    </g>
    <g
       style="fill:none;stroke:#ffffff;stroke-width:1.20000005;stroke-linecap:round;stroke-linejoin:round;stroke-opacity:1;opacity:1"
       id="g96"
       transform="matrix(1,0,0,-1,0,32)">
      <path
         d="M 15,27.7 H 4.1"
         id="path80"
         inkscape:connector-curvature="0" />
      <path
         d="M 16.7,26 15,27.7"
         id="path82"
         inkscape:connector-curvature="0" />
      <path
         d="m 3,26.6 v -2"
         id="path84"
         inkscape:connector-curvature="0" />
      <path
         d="M 16.7,16.2 V 26"
         id="path86"
         inkscape:connector-curvature="0" />
      <path
         d="m 12.8,14.64 h 2.34"
         id="path88"
         inkscape:connector-curvature="0" />
      <path
         d="M 4.1,27.7 3,26.6"
         id="path90"
         inkscape:connector-curvature="0" />
      <path
         d="M 15.14,14.64 16.7,16.2"
         id="path92"
         inkscape:connector-curvature="0" />
      <path
         d="M 5.54,24.6 V 6.96"
         id="path94"
         inkscape:connector-curvature="0" />
    </g>
    <g
       style="fill:none;stroke:#ffffff;stroke-width:0.2;stroke-linecap:round;stroke-linejoin:round;stroke-opacity:1;opacity:1"
       id="g100"
       transform="matrix(1,0,0,-1,0,32)">
      <path
         d="M 5.54,6.96 5.6,6.9"
         id="path98"
         inkscape:connector-curvature="0" />
    </g>
    <g
       style="fill:none;stroke:#ffffff;stroke-width:1.20000005;stroke-linecap:round;stroke-linejoin:round;stroke-opacity:1;opacity:1"
       id="g112"
       transform="matrix(1,0,0,-1,0,32)">
      <path
         d="M 6.82,4.48 H 12.8"
         id="path102"
         inkscape:connector-curvature="0" />
      <path
         d="M 5.6,5.7 6.82,4.48"
         id="path104"
         inkscape:connector-curvature="0" />
      <path
         d="M 5.6,6.9 V 5.7"
         id="path106"
         inkscape:connector-curvature="0" />
      <path
         style="fill:#ffffff;fill-opacity:1;fill-rule:evenodd;stroke:none;opacity:1"
         d="m 11.5173,5.6002 0.0322,0.03 0.0112,0.0149 0.0318,0.0424 v 0 l 0.1152,0.0863 v 0 l 0.0622,0.0232 0.0697,0.026 0.0559,0.0419 0.0244,0.0654 -0.0148,0.0683 -0.0212,0.0283 -0.1136,0.1136 -0.1249,0.1719 -0.0965,0.1894 -0.0657,0.2021 v 0 L 11.4728,6.77 H 12.367 L 12.3341,6.827 12.3,6.9542 V 7.0858 L 12.3341,7.213 12.367,7.27 h -0.8942 l 0.0104,0.0661 v 0 l 0.0657,0.2021 0.0965,0.1894 0.1249,0.1719 v 0 l 0.1502,0.1502 v 0 l 0.1719,0.1249 0.0091,0.0046 0.0508,0.048 0.0168,0.0678 -0.0226,0.0662 -0.045,0.039 -0.0093,0.0047 -0.172,0.125 -0.1503,0.1503 -0.1249,0.172 -0.0966,0.1894 -0.0656,0.2022 -0.0333,0.2099 v 0.2126 l 0.0333,0.2099 0.0065,0.02 0.0591,0.1822 0.0966,0.1894 0.1249,0.172 0.1503,0.1503 0.172,0.1249 0.0087,0.0045 0.0508,0.048 0.0168,0.0678 -0.0225,0.0661 -0.0451,0.0391 -0.0087,0.0044 -0.172,0.125 -0.1503,0.1503 -0.1249,0.172 -0.0966,0.1894 -0.0656,0.2022 -0.0333,0.2099 v 0.2126 l 0.0333,0.2099 0.0065,0.02 0.0591,0.1822 0.0966,0.1894 0.1249,0.172 0.1503,0.1503 0.172,0.1249 0.0087,0.0045 0.0508,0.048 0.0168,0.0678 -0.0225,0.0661 -0.0451,0.0391 -0.0087,0.0044 -0.172,0.125 -0.1503,0.1503 -0.1249,0.172 -0.0966,0.1894 -0.0656,0.2022 -0.0333,0.2099 v 0.2126 l 0.0333,0.2099 0.0065,0.02 0.0591,0.1822 0.0966,0.1894 0.1249,0.172 0.1503,0.1503 0.172,0.1249 0.0087,0.0045 0.0508,0.048 0.0168,0.0678 -0.0225,0.0661 -0.0451,0.0391 -0.0087,0.0044 -0.172,0.125 -0.1503,0.1503 -0.1249,0.172 -0.0966,0.1894 -0.0656,0.2022 -0.0333,0.2099 v 0.2126 l 0.0333,0.2099 0.0065,0.02 0.0591,0.1822 0.0966,0.1894 0.1249,0.172 0.1503,0.1503 0.172,0.1249 0.0087,0.0045 0.0508,0.048 0.0168,0.0678 -0.0225,0.0661 -0.0451,0.0391 -0.0087,0.0044 -0.172,0.125 -0.1503,0.1503 -0.1249,0.172 -0.0966,0.1894 -0.0656,0.2022 -0.0333,0.2099 v 0.2126 l 0.0333,0.2099 0.0065,0.02 0.0591,0.1822 0.0966,0.1894 0.1249,0.172 0.1503,0.1503 0.172,0.1249 0.0087,0.0045 0.0508,0.048 0.0168,0.0678 -0.0225,0.0661 -0.0451,0.0391 -0.0087,0.0044 -0.172,0.125 -0.1503,0.1503 -0.1249,0.172 -0.0966,0.1894 -0.0656,0.2022 -0.0333,0.2099 v 0.2126 l 0.0333,0.2099 0.0065,0.02 0.0591,0.1822 0.0966,0.1894 0.1249,0.172 0.1503,0.1503 0.172,0.1249 0.0087,0.0045 0.0508,0.048 0.0168,0.0678 -0.0225,0.0661 -0.0451,0.0391 -0.0087,0.0044 -0.172,0.125 -0.1503,0.1503 -0.1249,0.172 -0.0966,0.1894 -0.0656,0.2022 -0.0289,0.182 -0.0044,0.0279 v 0.2126 l 0.0333,0.2099 0.0621,0.1914 0.0035,0.0108 0.0966,0.1894 0.1249,0.172 0.1503,0.1503 0.172,0.1249 v 0 1e-4 l 0.1894,0.0965 0.2022,0.0656 0.2099,0.0333 v 0 h 0.2126 v 0 l 0.2099,-0.0333 0.2022,-0.0656 0.1894,-0.0965 0.0383,-0.0279 0.1337,-0.0971 v 0 0 l 0.1503,-0.1503 v 0 0 l 0.1249,-0.172 v 0 h 10e-5 l 0.0965,-0.1894 0.0656,-0.2022 0.0333,-0.2099 v -0.2126 l -0.0333,-0.2099 -0.0656,-0.2022 -0.0965,-0.1894 h -10e-5 v 0 l -0.1249,-0.172 -0.1503,-0.1503 -0.172,-0.1249 -7e-4,-4e-4 -0.008,-0.0041 -0.0508,-0.048 -0.0168,-0.0678 0.0225,-0.0661 0.0451,-0.0391 0.0087,-0.0044 0.0911,-0.0662 0.0809,-0.0588 v 0 0 l 0.1503,-0.1503 v 0 0 l 0.1249,-0.172 v 0 h 10e-5 l 0.0965,-0.1894 0.0656,-0.2022 0.0333,-0.2099 v -0.2126 l -0.0333,-0.2099 -0.0656,-0.2022 -0.0965,-0.1894 h -10e-5 v 0 l -0.1249,-0.172 -0.1503,-0.1503 -0.172,-0.1249 -7e-4,-4e-4 -0.008,-0.0041 -0.0508,-0.048 -0.0168,-0.0678 0.0225,-0.0661 0.0451,-0.0391 0.0087,-0.0044 0.022,-0.016 0.15,-0.109 v 0 0 l 0.1503,-0.1503 v 0 0 l 0.1249,-0.172 v 0 h 10e-5 l 0.0965,-0.1894 0.0656,-0.2022 0.0333,-0.2099 v -0.2126 l -0.0333,-0.2099 -0.0656,-0.2022 -0.0965,-0.1894 h -10e-5 v 0 l -0.1249,-0.172 -0.1503,-0.1503 -0.172,-0.1249 -7e-4,-4e-4 -0.008,-0.0041 -0.0508,-0.048 -0.0168,-0.0678 0.0225,-0.0661 0.0451,-0.0391 0.0087,-0.0044 0.022,-0.016 0.15,-0.109 v 0 0 l 0.1503,-0.1503 v 0 0 l 0.1249,-0.172 v 0 h 10e-5 l 0.0965,-0.1894 0.0656,-0.2022 0.0333,-0.2099 v -0.2126 l -0.0333,-0.2099 -0.0656,-0.2022 -0.0965,-0.1894 h -10e-5 v 0 l -0.1249,-0.172 -0.1503,-0.1503 -0.172,-0.1249 -7e-4,-4e-4 -0.008,-0.0041 -0.0038,-0.0035 -0.0049,-0.0014 -0.0202,-0.0224 -0.0219,-0.0207 -0.0013,-0.005 -0.0034,-0.0038 -0.0049,-0.0297 -0.0072,-0.0293 0.0016,-0.0049 -8e-4,-0.005 0.012,-0.0277 0.0097,-0.0285 0.0046,-0.0045 0.0015,-0.0035 0.0111,-0.0088 0.0151,-0.0148 0.0061,-0.0041 0.0154,-0.0078 0.0444,-0.0323 0.0019,-0.0013 0.0312,-0.0098 0.0308,-0.011 0.0045,-10e-5 2e-4,-10e-5 1e-4,10e-5 0.0023,-10e-5 h 1.0096 l 0.067,0.0197 0.0207,0.0166 0.8427,0.8427 0.0335,0.0613 0.0028,0.0264 v 8.7856 l -0.0197,0.067 -0.0166,0.0207 -0.9827,0.9827 -0.0613,0.0335 -0.0264,0.0028 H 4.6072 L 4.5402,26.5798 4.5195,26.5632 4.1368,26.1805 4.1221,26.1535 4.1055,26.1277 4.1046,26.1215 4.1033,26.1192 4.1005,26.0928 v -0.1431 l 0.0197,-0.067 0.03,-0.0322 0.0573,-0.043 0.0863,-0.1152 0.049,-0.1314 0.0419,-0.0559 0.0654,-0.0244 0.0683,0.0148 0.0283,0.0212 0.1135,0.1135 0.172,0.1249 v 0 10e-5 l 0.1894,0.0965 0.2022,0.0656 0.2099,0.0333 v 0 h 0.2126 v 0 l 0.2099,-0.0333 0.2022,-0.0656 0.1894,-0.0965 0.0761,-0.0553 0.0959,-0.0697 v 0 0 l 0.1503,-0.1503 v 0 0 l 0.1173,-0.1614 0.0077,-0.0106 0.0047,-0.0093 0.048,-0.0508 0.0678,-0.0168 0.0661,0.0225 0.0391,0.0451 0.0046,0.0091 0.1249,0.1719 v 0 l 0.1502,0.1502 v 0 l 0.1719,0.1249 0.1894,0.0965 0.2021,0.0657 0.0661,0.0104 V 25.033 L 7.887,25.0659 8.0142,25.1 H 8.1458 L 8.273,25.0659 8.33,25.033 v 0.8942 l 0.0661,-0.0104 v 0 l 0.2021,-0.0657 0.1894,-0.0965 0.1719,-0.1249 v 0 l 0.1502,-0.1502 v 0 l 0.1249,-0.1719 0.0965,-0.1894 0.0657,-0.2021 v 0 L 9.4072,24.85 H 8.513 L 8.5459,24.793 8.58,24.6658 V 24.5342 L 8.5459,24.407 8.513,24.35 H 9.4072 L 9.3968,24.2839 v 0 L 9.3311,24.0818 9.2346,23.8924 9.1097,23.7205 v 0 L 8.9595,23.5703 v 0 L 8.7876,23.4454 8.5982,23.3489 8.3961,23.2832 8.33,23.2728 V 24.167 L 8.273,24.1341 8.1458,24.1 H 8.0142 L 7.887,24.1341 7.83,24.167 v -0.8942 0 l -0.0661,0.0104 -0.2021,0.0657 -0.1894,0.0965 -0.1719,0.1249 v 0 l -0.1502,0.1502 v 0 L 6.9254,23.8924 6.9208,23.9015 6.9172,23.9053 6.9158,23.9103 6.8934,23.9304 6.8728,23.9523 6.8677,23.9535 6.8639,23.957 6.8342,23.9619 6.805,23.9691 6.8,23.9674 6.7949,23.9682 6.7673,23.9563 6.7388,23.9465 6.7343,23.9419 6.7308,23.9404 6.7219,23.9292 6.7072,23.9142 6.7031,23.9081 6.6951,23.8922 6.6628,23.8478 6.6615,23.8458 6.6517,23.8146 l -0.011,-0.0307 -10e-5,-0.0046 -10e-5,-2e-4 10e-5,-10e-5 -10e-5,-0.0022 V 8.0893 L 6.6602,8.0222 6.713,7.9765 6.7821,7.9665 6.8457,7.9956 6.8638,8.015 6.9328,8.1072 v 0 l 0.1151,0.0861 v 10e-5 l 0.1347,0.0502 v 0 L 7.2422,8.25 v 0 H 7.89 V 7.333 L 7.947,7.3659 8.0742,7.4 H 8.2058 L 8.333,7.3659 8.39,7.333 V 8.25 h 0.6478 v 0 L 9.0974,8.2436 v 0 L 9.2321,8.1934 V 8.1933 L 9.3472,8.1072 v 0 L 9.4333,7.9921 h 1e-4 L 9.4836,7.8574 v 0 L 9.49,7.7978 v 0 V 7.15 H 8.573 L 8.6059,7.093 8.64,6.9658 V 6.8342 L 8.6059,6.707 8.573,6.65 H 9.49 v -0.6478 0 L 9.4836,5.9426 v 0 L 9.4334,5.8079 v 0 L 9.4116,5.7788 9.3872,5.7133 9.402,5.6451 9.4514,5.5957 9.5108,5.5805 h 1.9394 z"
         id="path108"
         inkscape:connector-curvature="0" />
      <path
         style="fill:#ffffff;fill-opacity:1;fill-rule:evenodd;stroke:none;opacity:1"
         d="m 31.4425,0.5202 0.0458,0.0528 0.0112,0.0515 v 30.751 l -0.0197,0.067 -0.0528,0.0458 -0.0515,0.0112 H 0.6245 L 0.5575,31.4798 0.5117,31.427 0.5005,31.3755 v -7.6734 h 1.149 v 1.7958 0 l 0.0064,0.0596 0.0503,0.1348 v 0 0 l 0.0863,0.1152 0.0568,0.0426 5e-4,4e-4 0.0419,0.0559 0.0078,0.0433 v 0.5637 0.1732 l 0.0271,0.1711 0.0535,0.1647 0.0787,0.1544 0.1018,0.1401 1.2225,1.2225 0.1401,0.1018 0.1544,0.0787 0.1647,0.0535 0.1711,0.0271 v 0 h 11.0732 v 0 l 0.1711,-0.0271 0.1647,-0.0535 0.1544,-0.0787 0.1401,-0.1018 1.8225,-1.8225 0.1018,-0.1401 0.0787,-0.1544 0.0535,-0.1647 0.0271,-0.1711 v -0.1732 -9.8 l -0.0271,-0.1711 -0.0366,-0.1128 v 0 l -0.0169,-0.0519 v 0 l -0.0548,-0.1075 -0.0239,-0.0469 -0.1018,-0.1401 -1.6825,-1.6825 -0.1401,-0.1018 -0.1544,-0.0787 -0.1647,-0.0535 v 0 0 l -0.1314,-0.0208 -0.0397,-0.0063 v 0 h -1.6034 l -0.0183,-0.0054 -0.019,-3e-4 -0.0248,-0.0125 -0.0049,-0.0015 -0.0021,-0.0013 -0.0019,-0.0013 -0.0444,-0.0323 -0.0154,-0.0078 -0.0061,-0.0041 -0.0178,-0.0214 -0.0202,-0.0191 -0.0019,-0.0074 -0.0048,-0.0058 -0.0035,-0.0276 -0.0066,-0.027 0.0024,-0.0072 -9e-4,-0.0075 0.012,-0.0251 0.009,-0.0263 0.0063,-0.0055 0.0029,-0.0061 0.0142,-0.0088 0.0217,-0.0187 0.0087,-0.0044 0.022,-0.016 0.15,-0.109 v 0 0 l 0.1503,-0.1503 v 0 0 l 0.1249,-0.172 v 0 h 10e-5 l 0.0965,-0.1894 0.0656,-0.2022 0.0333,-0.2099 v -0.2126 l -0.0333,-0.2099 -0.0656,-0.2022 -0.0965,-0.1894 h -10e-5 v 0 l -0.1249,-0.172 -0.1503,-0.1503 -0.172,-0.1249 -7e-4,-4e-4 -0.008,-0.0041 -0.0508,-0.048 -0.0168,-0.0678 0.0225,-0.0661 0.0451,-0.0391 0.0087,-0.0044 0.022,-0.016 0.15,-0.109 v 0 0 l 0.1503,-0.1503 v 0 0 l 0.1249,-0.172 v 0 h 10e-5 l 0.0965,-0.1894 0.0656,-0.2022 0.0333,-0.2099 V 9.4537 L 14.1172,9.2438 14.0516,9.0416 13.9551,8.8522 h -10e-5 v 0 L 13.8301,8.6802 13.6798,8.5299 13.5078,8.4049 13.4985,8.4002 13.4477,8.3522 13.4309,8.2844 13.4534,8.2183 13.4985,8.1792 13.5076,8.1746 13.6795,8.0497 v 0 l 0.1502,-0.1502 v 0 l 0.1249,-0.1719 0.0965,-0.1894 0.0657,-0.2021 v 0 L 14.1272,7.27 H 13.233 L 13.2659,7.213 13.3,7.0858 V 6.9542 L 13.2659,6.827 13.233,6.77 h 0.8942 L 14.1168,6.7039 v 0 L 14.0511,6.5018 13.9546,6.3124 13.8297,6.1405 v 0 L 13.7161,6.0269 13.6826,5.9655 13.6876,5.8958 13.7294,5.8399 13.7604,5.823 13.8498,5.7896 13.8923,5.7738 v 0 0 L 14.0075,5.6875 14.0938,5.5723 14.1441,5.4375 14.1505,5.3779 V 3.6021 h 12.499 v 1.7958 0 l 0.0064,0.0596 0.0503,0.1348 v 0 l 0.0863,0.1152 v 0 l 0.1152,0.0863 v 0 l 0.1314,0.049 0.0559,0.0419 0.0244,0.0654 -0.0148,0.0683 -0.0212,0.0283 -0.1135,0.1135 -0.1249,0.172 -0.0966,0.1894 -0.0656,0.2022 -0.0333,0.2099 v 0.2126 l 0.0301,0.1898 0.0032,0.0201 0.0591,0.182 0.0065,0.0202 0.0966,0.1894 0.1249,0.172 0.1503,0.1503 0.172,0.125 0.0087,0.0044 0.0508,0.048 0.0168,0.0678 -0.0225,0.0661 -0.0451,0.0391 -0.0087,0.0044 -0.172,0.125 -0.1503,0.1503 -0.1249,0.172 -0.0966,0.1894 -0.0656,0.2022 -0.0333,0.2099 v 0.2126 l 0.0301,0.1899 0.0032,0.02 0.0591,0.1822 0.0065,0.02 0.0966,0.1894 0.1249,0.172 0.1503,0.1503 0.172,0.1249 0.0087,0.0045 0.0508,0.048 0.0168,0.0678 -0.0225,0.0661 -0.0451,0.0391 -0.0087,0.0044 -0.172,0.125 -0.1503,0.1503 -0.1249,0.172 -0.0966,0.1894 -0.0656,0.2022 -0.0333,0.2099 v 0.2126 l 0.0301,0.1899 0.0032,0.02 0.0591,0.1822 0.0065,0.02 0.0966,0.1894 0.1249,0.172 0.1503,0.1503 0.172,0.125 0.0087,0.0044 0.0508,0.048 0.0168,0.0678 -0.0225,0.0661 -0.0451,0.0391 -0.0087,0.0044 -0.172,0.125 -0.1503,0.1503 -0.1249,0.172 -0.0966,0.1894 -0.0656,0.2022 -0.0333,0.2099 v 0.2126 l 0.0301,0.1899 0.0032,0.02 0.0591,0.1822 0.0065,0.02 0.0966,0.1894 0.1249,0.172 0.1503,0.1503 0.172,0.1249 0.0087,0.0045 0.0508,0.048 0.0168,0.0678 -0.0225,0.0661 -0.0451,0.0391 -0.0087,0.0044 -0.172,0.125 -0.1503,0.1503 -0.1249,0.172 -0.0966,0.1894 -0.0656,0.2022 -0.0333,0.2099 v 0.2126 l 0.0301,0.1899 0.0032,0.02 0.0591,0.1822 0.0065,0.02 0.0966,0.1894 0.1249,0.172 0.1503,0.1503 0.172,0.1249 0.0087,0.0045 0.0508,0.048 0.0168,0.0678 -0.0225,0.0661 -0.0451,0.0391 -0.0087,0.0044 -0.172,0.125 -0.1503,0.1503 -0.1249,0.172 -0.0966,0.1894 -0.0656,0.2022 -0.0333,0.2099 v 0.2126 l 0.0301,0.1899 0.0032,0.02 0.0591,0.1822 0.0065,0.02 0.0966,0.1894 0.1249,0.172 0.1503,0.1503 0.172,0.1249 0.0087,0.0045 0.0508,0.048 0.0168,0.0678 -0.0225,0.0661 -0.0451,0.0391 -0.0087,0.0044 -0.172,0.125 -0.1503,0.1503 -0.1249,0.172 -0.0966,0.1894 -0.0656,0.2022 -0.0333,0.2099 v 0.2126 l 0.0301,0.1899 0.0032,0.02 0.0591,0.1822 0.0065,0.02 0.0966,0.1894 0.1249,0.172 0.1503,0.1503 0.172,0.125 0.0087,0.0044 0.0508,0.048 0.0168,0.0678 -0.0225,0.0661 -0.0451,0.0391 -0.0087,0.0044 -0.172,0.125 -0.1503,0.1503 -0.1249,0.172 -0.0966,0.1894 -0.0656,0.2022 -0.0333,0.2099 v 0.2126 l 0.0301,0.1899 0.0032,0.02 0.0591,0.1822 0.0065,0.02 0.0966,0.1894 0.1249,0.172 0.1503,0.1503 0.172,0.1249 v 0 10e-5 l 0.1894,0.0965 0.2022,0.0656 0.2099,0.0333 v 0 h 0.2126 v 0 l 0.2099,-0.0333 0.2022,-0.0656 0.1894,-0.0965 0.0338,-0.0246 0.1382,-0.1004 v 0 0 l 0.1503,-0.1503 v 0 0 l 0.1249,-0.172 v 0 h 10e-5 l 0.0965,-0.1894 0.0656,-0.2022 0.0333,-0.2099 v -0.2126 l -0.0333,-0.2099 -0.0656,-0.2022 -0.0965,-0.1894 h -10e-5 v 0 l -0.1249,-0.172 -0.1503,-0.1503 -0.172,-0.1249 -7e-4,-4e-4 -0.008,-0.0041 -0.0508,-0.048 -0.0168,-0.0678 0.0225,-0.0661 0.0451,-0.0391 0.0087,-0.0044 0.0586,-0.0426 0.1134,-0.0824 v 0 0 l 0.1503,-0.1503 v 0 0 l 0.1249,-0.172 v 0 h 10e-5 l 0.0965,-0.1894 0.0656,-0.2022 0.0333,-0.2099 v -0.2126 l -0.0333,-0.2099 -0.0656,-0.2022 -0.0965,-0.1894 h -10e-5 v 0 l -0.1249,-0.172 -0.1503,-0.1503 -0.172,-0.1249 -7e-4,-4e-4 -0.008,-0.0041 -0.0508,-0.048 -0.0168,-0.0678 0.0225,-0.0661 0.0451,-0.0391 0.0087,-0.0044 0.0275,-0.0201 0.1445,-0.1049 v 0 0 l 0.1503,-0.1503 v 0 0 l 0.1249,-0.172 v 0 h 10e-5 l 0.0965,-0.1894 0.0656,-0.2022 0.0333,-0.2099 v -0.2126 l -0.0333,-0.2099 -0.0656,-0.2022 -0.0965,-0.1894 h -10e-5 v 0 l -0.1249,-0.172 -0.1503,-0.1503 -0.172,-0.1249 -7e-4,-4e-4 -0.008,-0.0041 -0.0508,-0.048 -0.0168,-0.0678 0.0225,-0.0661 0.0451,-0.0391 0.0087,-0.0044 0.0275,-0.0201 0.1445,-0.1049 v 0 0 l 0.1503,-0.1503 v 0 0 l 0.1249,-0.172 v 0 h 10e-5 l 0.0965,-0.1894 0.0656,-0.2022 0.0333,-0.2099 v -0.2126 l -0.0333,-0.2099 -0.0656,-0.2022 -0.0965,-0.1894 h -10e-5 v 0 l -0.1249,-0.172 -0.1503,-0.1503 -0.172,-0.1249 -7e-4,-4e-4 -0.008,-0.0041 -0.0508,-0.048 -0.0168,-0.0678 0.0225,-0.0661 0.0451,-0.0391 0.0087,-0.0044 0.0755,-0.0549 0.0965,-0.0701 v 0 0 l 0.1503,-0.1503 v 0 0 l 0.1249,-0.172 v 0 h 10e-5 l 0.0965,-0.1894 0.0656,-0.2022 0.0333,-0.2099 v -0.2126 l -0.0333,-0.2099 -0.0656,-0.2022 -0.0965,-0.1894 h -10e-5 v 0 l -0.1249,-0.172 -0.1503,-0.1503 -0.172,-0.1249 -7e-4,-4e-4 -0.008,-0.0041 -0.0508,-0.048 -0.0168,-0.0678 0.0225,-0.0661 0.0451,-0.0391 0.0087,-0.0044 0.0275,-0.0201 0.1445,-0.1049 v 0 0 l 0.1503,-0.1503 v 0 0 l 0.1249,-0.172 v 0 h 10e-5 l 0.0965,-0.1894 0.0656,-0.2022 0.0333,-0.2099 v -0.2126 l -0.0333,-0.2099 -0.0656,-0.2022 -0.0965,-0.1894 h -10e-5 v 0 l -0.1249,-0.172 -0.1503,-0.1503 -0.172,-0.1249 -7e-4,-4e-4 -0.008,-0.0041 -0.0508,-0.048 -0.0168,-0.0678 0.0225,-0.0661 0.0451,-0.0391 0.0087,-0.0044 0.0275,-0.0201 0.1445,-0.1049 v 0 0 l 0.1503,-0.1503 v 0 0 l 0.1249,-0.172 v 0 h 10e-5 l 0.0965,-0.1894 0.0656,-0.2022 0.0333,-0.2099 V 9.4737 L 29.3172,9.2638 29.2516,9.0616 29.1551,8.8722 h -10e-5 v 0 L 29.0301,8.7002 28.8798,8.5499 28.7078,8.425 28.7071,8.4246 28.6991,8.4205 28.6483,8.3725 28.6315,8.3047 28.654,8.2386 28.6991,8.1995 28.7078,8.1951 28.7359,8.1746 28.8798,8.0701 v 0 0 l 0.1503,-0.1503 v 0 0 l 0.1249,-0.172 v 0 h 10e-5 L 29.2516,7.5584 29.3172,7.3562 29.3505,7.1463 V 6.9337 L 29.3172,6.7238 29.2516,6.5216 29.1551,6.3322 h -10e-5 v 0 l -0.1249,-0.172 -0.1135,-0.1135 -0.0335,-0.0614 0.005,-0.0696 0.0418,-0.056 0.031,-0.0169 0.1314,-0.049 0.1152,-0.0863 0.0863,-0.1152 0.0503,-0.1348 0.0064,-0.0596 V 3.6021 L 29.3441,3.5425 29.3366,3.5225 29.2938,3.4077 v 0 L 29.2075,3.2925 v 0 L 29.0923,3.2062 v 0 L 28.9575,3.1559 v 0 L 28.8979,3.1495 v 0 0 0 h -1.7958 v 0 l -0.0596,0.0064 -0.1348,0.0503 v 0 l -0.1152,0.0863 v 0 l -0.0863,0.1152 v 0 l -0.0503,0.1348 -0.0064,0.0596 v 0 0 h -12.499 v -0.02 L 14.1441,3.5225 14.1208,3.4601 14.0938,3.3877 v 0 L 14.0075,3.2725 v 0 L 13.8923,3.1862 v 0 L 13.7575,3.1359 v 0 L 13.6979,3.1295 v 0 0 0 h -1.7958 v 0 l -0.0596,0.0064 -0.1348,0.0503 v 0 l -0.1152,0.0863 v 0 l -0.043,0.0573 -0.0559,0.0419 -0.0434,0.0078 H 6.7334 L 6.71,3.3832 6.5623,3.4066 v 0 0 L 6.4799,3.4334 6.3975,3.4601 6.2432,3.5388 6.1835,3.5821 6.1681,3.5934 6.156,3.6021 6.1031,3.6406 4.7606,4.9831 v 0 0 L 4.7169,5.0433 4.6588,5.1232 4.5801,5.2776 4.5266,5.4423 4.4995,5.6134 V 6.0768 L 4.4798,6.1438 4.4758,6.1497 4.4449,6.1922 v 0 L 4.3484,6.3816 4.2828,6.5838 4.2533,6.77 4.2495,6.7937 v 0.2126 l 0.01,0.0633 0.0233,0.1466 0.0656,0.2022 0.0776,0.1522 0.0135,0.0563 V 23.3297 L 4.4198,23.3968 4.367,23.4425 4.2979,23.4525 4.2343,23.4235 4.2162,23.4041 4.2075,23.3925 v 0 0 L 4.0923,23.3062 v 0 L 3.9575,23.2559 v 0 L 3.8979,23.2495 v 0 0 0 H 2.1021 v 0 l -0.0596,0.0064 -0.1348,0.0503 v 0 l -0.1152,0.0863 v 0 l -0.0863,0.1152 v 0 l -0.0503,0.1348 -0.0064,0.0596 v 0 H 0.5005 V 0.6245 L 0.5202,0.5575 0.573,0.5117 0.6245,0.5005 h 30.751 z"
         id="path110"
         inkscape:connector-curvature="0" />
    </g>
    <g
       style="fill:#000000;fill-opacity:1;stroke:none;opacity:1"
       id="g116"
       transform="matrix(1,0,0,-1,0,32)">
      <circle
         cx="3"
         cy="24.6"
         r="0.175"
         id="circle114" />
    </g>
    <g
       style="fill:#000000;fill-opacity:1;stroke:none;opacity:1"
       id="g120"
       transform="matrix(1,0,0,-1,0,32)">
      <circle
         cx="5.54"
         cy="24.6"
         r="0.175"
         id="circle118" />
    </g>
    <g
       style="fill:#000000;fill-opacity:1;stroke:none;opacity:1"
       id="g124"
       transform="matrix(1,0,0,-1,0,32)">
      <circle
         cx="8.0799999"
         cy="24.6"
         r="0.175"
         id="circle122" />
    </g>
    <g
       style="fill:#000000;fill-opacity:1;stroke:none;opacity:1"
       id="g128"
       transform="matrix(1,0,0,-1,0,32)">
      <circle
         cx="12.8"
         cy="4.48"
         r="0.175"
         id="circle126" />
    </g>
    <g
       style="fill:#000000;fill-opacity:1;stroke:none;opacity:1"
       id="g132"
       transform="matrix(1,0,0,-1,0,32)">
      <circle
         cx="12.8"
         cy="7.02"
         r="0.175"
         id="circle130" />
    </g>
    <g
       style="fill:#000000;fill-opacity:1;stroke:none;opacity:1"
       id="g136"
       transform="matrix(1,0,0,-1,0,32)">
      <circle
         cx="12.8"
         cy="9.5600004"
         r="0.175"
         id="circle134" />
    </g>
    <g
       style="fill:#000000;fill-opacity:1;stroke:none;opacity:1"
       id="g140"
       transform="matrix(1,0,0,-1,0,32)">
      <circle
         cx="12.8"
         cy="12.1"
         r="0.175"
         id="circle138" />
    </g>
    <g
       style="fill:#000000;fill-opacity:1;stroke:none;opacity:1"
       id="g144"
       transform="matrix(1,0,0,-1,0,32)">
      <circle
         cx="12.8"
         cy="14.64"
         r="0.175"
         id="circle142" />
    </g>
    <g
       style="fill:#000000;fill-opacity:1;stroke:none;opacity:1"
       id="g148"
       transform="matrix(1,0,0,-1,0,32)">
      <circle
         cx="12.8"
         cy="17.18"
         r="0.175"
         id="circle146" />
    </g>
    <g
       style="fill:#000000;fill-opacity:1;stroke:none;opacity:1"
       id="g152"
       transform="matrix(1,0,0,-1,0,32)">
      <circle
         cx="12.8"
         cy="19.719999"
         r="0.175"
         id="circle150" />
    </g>
    <g
       style="fill:#000000;fill-opacity:1;stroke:none;opacity:1"
       id="g156"
       transform="matrix(1,0,0,-1,0,32)">
      <circle
         cx="12.8"
         cy="22.26"
         r="0.175"
         id="circle154" />
    </g>
    <g
       style="fill:#000000;fill-opacity:1;stroke:none;opacity:1"
       id="g160"
       transform="matrix(1,0,0,-1,0,32)">
      <circle
         cx="12.8"
         cy="24.799999"
         r="0.175"
         id="circle158" />
    </g>
    <g
       style="fill:#000000;fill-opacity:1;stroke:none;opacity:1"
       id="g164"
       transform="matrix(1,0,0,-1,0,32)">
      <circle
         cx="8.1400003"
         cy="6.9000001"
         r="0.175"
         id="circle162" />
    </g>
    <g
       style="fill:#000000;fill-opacity:1;stroke:none;opacity:1"
       id="g168"
       transform="matrix(1,0,0,-1,0,32)">
      <circle
         cx="5.5999999"
         cy="6.9000001"
         r="0.175"
         id="circle166" />
    </g>
    <g
       style="fill:#000000;fill-opacity:1;stroke:none;opacity:1"
       id="g172"
       transform="matrix(1,0,0,-1,0,32)">
      <circle
         cx="28"
         cy="4.5"
         r="0.175"
         id="circle170" />
    </g>
    <g
       style="fill:#000000;fill-opacity:1;stroke:none;opacity:1"
       id="g176"
       transform="matrix(1,0,0,-1,0,32)">
      <circle
         cx="28"
         cy="7.04"
         r="0.175"
         id="circle174" />
    </g>
    <g
       style="fill:#000000;fill-opacity:1;stroke:none;opacity:1"
       id="g180"
       transform="matrix(1,0,0,-1,0,32)">
      <circle
         cx="28"
         cy="9.5799999"
         r="0.175"
         id="circle178" />
    </g>
    <g
       style="fill:#000000;fill-opacity:1;stroke:none;opacity:1"
       id="g184"
       transform="matrix(1,0,0,-1,0,32)">
      <circle
         cx="28"
         cy="12.12"
         r="0.175"
         id="circle182" />
    </g>
    <g
       style="fill:#000000;fill-opacity:1;stroke:none;opacity:1"
       id="g188"
       transform="matrix(1,0,0,-1,0,32)">
      <circle
         cx="28"
         cy="14.66"
         r="0.175"
         id="circle186" />
    </g>
    <g
       style="fill:#000000;fill-opacity:1;stroke:none;opacity:1"
       id="g192"
       transform="matrix(1,0,0,-1,0,32)">
      <circle
         cx="28"
         cy="17.200001"
         r="0.175"
         id="circle190" />
    </g>
    <g
       style="fill:#000000;fill-opacity:1;stroke:none;opacity:1"
       id="g196"
       transform="matrix(1,0,0,-1,0,32)">
      <circle
         cx="28"
         cy="19.74"
         r="0.175"
         id="circle194" />
    </g>
    <g
       style="fill:#000000;fill-opacity:1;stroke:none;opacity:1"
       id="g200"
       transform="matrix(1,0,0,-1,0,32)">
      <circle
         cx="28"
         cy="22.280001"
         r="0.175"
         id="circle198" />
    </g>
    <g
       style="fill:#ffffff;fill-opacity:1;stroke:none;opacity:1"
       id="g210"
       transform="matrix(1,0,0,-1,0,32)">
      <circle
         cx="3"
         cy="24.6"
         r="0.175"
         id="circle208" />
    </g>
    <g
       style="fill:#ffffff;fill-opacity:1;stroke:none;opacity:1"
       id="g214"
       transform="matrix(1,0,0,-1,0,32)">
      <circle
         cx="5.54"
         cy="24.6"
         r="0.175"
         id="circle212" />
    </g>
    <g
       style="fill:#ffffff;fill-opacity:1;stroke:none;opacity:1"
       id="g218"
       transform="matrix(1,0,0,-1,0,32)">
      <circle
         cx="8.0799999"
         cy="24.6"
         r="0.175"
         id="circle216" />
    </g>
    <g
       style="fill:#ffffff;fill-opacity:1;stroke:none;opacity:1"
       id="g222"
       transform="matrix(1,0,0,-1,0,32)">
      <circle
         cx="12.8"
         cy="4.48"
         r="0.175"
         id="circle220" />
    </g>
    <g
       style="fill:#ffffff;fill-opacity:1;stroke:none;opacity:1"
       id="g226"
       transform="matrix(1,0,0,-1,0,32)">
      <circle
         cx="12.8"
         cy="7.02"
         r="0.175"
         id="circle224" />
    </g>
    <g
       style="fill:#ffffff;fill-opacity:1;stroke:none;opacity:1"
       id="g230"
       transform="matrix(1,0,0,-1,0,32)">
      <circle
         cx="12.8"
         cy="9.5600004"
         r="0.175"
         id="circle228" />
    </g>
    <g
       style="fill:#ffffff;fill-opacity:1;stroke:none;opacity:1"
       id="g234"
       transform="matrix(1,0,0,-1,0,32)">
      <circle
         cx="12.8"
         cy="12.1"
         r="0.175"
         id="circle232" />
    </g>
    <g
       style="fill:#ffffff;fill-opacity:1;stroke:none;opacity:1"
       id="g238"
       transform="matrix(1,0,0,-1,0,32)">
      <circle
         cx="12.8"
         cy="14.64"
         r="0.175"
         id="circle236" />
    </g>
    <g
       style="fill:#ffffff;fill-opacity:1;stroke:none;opacity:1"
       id="g242"
       transform="matrix(1,0,0,-1,0,32)">
      <circle
         cx="12.8"
         cy="17.18"
         r="0.175"
         id="circle240" />
    </g>
    <g
       style="fill:#ffffff;fill-opacity:1;stroke:none;opacity:1"
       id="g246"
       transform="matrix(1,0,0,-1,0,32)">
      <circle
         cx="12.8"
         cy="19.719999"
         r="0.175"
         id="circle244" />
    </g>
    <g
       style="fill:#ffffff;fill-opacity:1;stroke:none;opacity:1"
       id="g250"
       transform="matrix(1,0,0,-1,0,32)">
      <circle
         cx="12.8"
         cy="22.26"
         r="0.175"
         id="circle248" />
    </g>
    <g
       style="fill:#ffffff;fill-opacity:1;stroke:none;opacity:1"
       id="g254"
       transform="matrix(1,0,0,-1,0,32)">
      <circle
         cx="12.8"
         cy="24.799999"
         r="0.175"
         id="circle252" />
    </g>
    <g
       style="fill:#ffffff;fill-opacity:1;stroke:none;opacity:1"
       id="g258"
       transform="matrix(1,0,0,-1,0,32)">
      <circle
         cx="8.1400003"
         cy="6.9000001"
         r="0.175"
         id="circle256" />
    </g>
    <g
       style="fill:#ffffff;fill-opacity:1;stroke:none;opacity:1"
       id="g262"
       transform="matrix(1,0,0,-1,0,32)">
      <circle
         cx="5.5999999"
         cy="6.9000001"
         r="0.175"
         id="circle260" />
    </g>
    <g
       style="fill:#ffffff;fill-opacity:1;stroke:none;opacity:1"
       id="g266"
       transform="matrix(1,0,0,-1,0,32)">
      <circle
         cx="28"
         cy="4.5"
         r="0.175"
         id="circle264" />
    </g>
    <g
       style="fill:#ffffff;fill-opacity:1;stroke:none;opacity:1"
       id="g270"
       transform="matrix(1,0,0,-1,0,32)">
      <circle
         cx="28"
         cy="7.04"
         r="0.175"
         id="circle268" />
    </g>
    <g
       style="fill:#ffffff;fill-opacity:1;stroke:none;opacity:1"
       id="g274"
       transform="matrix(1,0,0,-1,0,32)">
      <circle
         cx="28"
         cy="9.5799999"
         r="0.175"
         id="circle272" />
    </g>
    <g
       style="fill:#ffffff;fill-opacity:1;stroke:none;opacity:1"
       id="g278"
       transform="matrix(1,0,0,-1,0,32)">
      <circle
         cx="28"
         cy="12.12"
         r="0.175"
         id="circle276" />
    </g>
    <g
       style="fill:#ffffff;fill-opacity:1;stroke:none;opacity:1"
       id="g282"
       transform="matrix(1,0,0,-1,0,32)">
      <circle
         cx="28"
         cy="14.66"
         r="0.175"
         id="circle280" />
    </g>
    <g
       style="fill:#ffffff;fill-opacity:1;stroke:none;opacity:1"
       id="g286"
       transform="matrix(1,0,0,-1,0,32)">
      <circle
         cx="28"
         cy="17.200001"
         r="0.175"
         id="circle284" />
    </g>
    <g
       style="fill:#ffffff;fill-opacity:1;stroke:none;opacity:1"
       id="g290"
       transform="matrix(1,0,0,-1,0,32)">
      <circle
         cx="28"
         cy="19.74"
         r="0.175"
         id="circle288" />
    </g>
    <g
       style="fill:#ffffff;fill-opacity:1;stroke:none;opacity:1"
       id="g294"
       transform="matrix(1,0,0,-1,0,32)">
      <circle
         cx="28"
         cy="22.280001"
         r="0.175"
         id="circle292" />
    </g>
    <g
       style="fill:#ffffff;fill-opacity:1;stroke:none;opacity:1"
       id="g298"
       transform="matrix(1,0,0,-1,0,32)">
      <circle
         cx="28"
         cy="24.82"
         r="0.175"
         id="circle296" />
    </g>
    <g
       style="fill:#000000;fill-opacity:1;stroke:none;opacity:1"
       id="g302"
       transform="matrix(1,0,0,-1,0,32)">
      <circle
         cx="3"
         cy="24.6"
         r="0.175"
         id="circle300" />
    </g>
    <g
       style="fill:#000000;fill-opacity:1;stroke:none;opacity:1"
       id="g306"
       transform="matrix(1,0,0,-1,0,32)">
      <circle
         cx="5.54"
         cy="24.6"
         r="0.175"
         id="circle304" />
    </g>
    <g
       style="fill:#000000;fill-opacity:1;stroke:none;opacity:1"
       id="g310"
       transform="matrix(1,0,0,-1,0,32)">
      <circle
         cx="8.0799999"
         cy="24.6"
         r="0.175"
         id="circle308" />
    </g>
    <g
       style="fill:#000000;fill-opacity:1;stroke:none;opacity:1"
       id="g314"
       transform="matrix(1,0,0,-1,0,32)">
      <circle
         cx="12.8"
         cy="4.48"
         r="0.175"
         id="circle312" />
    </g>
    <g
       style="fill:#000000;fill-opacity:1;stroke:none;opacity:1"
       id="g318"
       transform="matrix(1,0,0,-1,0,32)">
      <circle
         cx="12.8"
         cy="7.02"
         r="0.175"
         id="circle316" />
    </g>
    <g
       style="fill:#000000;fill-opacity:1;stroke:none;opacity:1"
       id="g322"
       transform="matrix(1,0,0,-1,0,32)">
      <circle
         cx="12.8"
         cy="9.5600004"
         r="0.175"
         id="circle320" />
    </g>
    <g
       style="fill:#000000;fill-opacity:1;stroke:none;opacity:1"
       id="g326"
       transform="matrix(1,0,0,-1,0,32)">
      <circle
         cx="12.8"
         cy="12.1"
         r="0.175"
         id="circle324" />
    </g>
    <g
       style="fill:#000000;fill-opacity:1;stroke:none;opacity:1"
       id="g330"
       transform="matrix(1,0,0,-1,0,32)">
      <circle
         cx="12.8"
         cy="14.64"
         r="0.175"
         id="circle328" />
    </g>
    <g
       style="fill:#000000;fill-opacity:1;stroke:none;opacity:1"
       id="g334"
       transform="matrix(1,0,0,-1,0,32)">
      <circle
         cx="12.8"
         cy="17.18"
         r="0.175"
         id="circle332" />
    </g>
    <g
       style="fill:#000000;fill-opacity:1;stroke:none;opacity:1"
       id="g338"
       transform="matrix(1,0,0,-1,0,32)">
      <circle
         cx="12.8"
         cy="19.719999"
         r="0.175"
         id="circle336" />
    </g>
    <g
       style="fill:#000000;fill-opacity:1;stroke:none;opacity:1"
       id="g342"
       transform="matrix(1,0,0,-1,0,32)">
      <circle
         cx="12.8"
         cy="22.26"
         r="0.175"
         id="circle340" />
    </g>
    <g
       style="fill:#000000;fill-opacity:1;stroke:none;opacity:1"
       id="g346"
       transform="matrix(1,0,0,-1,0,32)">
      <circle
         cx="12.8"
         cy="24.799999"
         r="0.175"
         id="circle344" />
    </g>
    <g
       style="fill:#000000;fill-opacity:1;stroke:none;opacity:1"
       id="g350"
       transform="matrix(1,0,0,-1,0,32)">
      <circle
         cx="8.1400003"
         cy="6.9000001"
         r="0.175"
         id="circle348" />
    </g>
    <g
       style="fill:#000000;fill-opacity:1;stroke:none;opacity:1"
       id="g354"
       transform="matrix(1,0,0,-1,0,32)">
      <circle
         cx="5.5999999"
         cy="6.9000001"
         r="0.175"
         id="circle352" />
    </g>
    <g
       style="fill:#000000;fill-opacity:1;stroke:none;opacity:1"
       id="g358"
       transform="matrix(1,0,0,-1,0,32)">
      <circle
         cx="28"
         cy="4.5"
         r="0.175"
         id="circle356" />
    </g>
    <g
       style="fill:#000000;fill-opacity:1;stroke:none;opacity:1"
       id="g362"
       transform="matrix(1,0,0,-1,0,32)">
      <circle
         cx="28"
         cy="7.04"
         r="0.175"
         id="circle360" />
    </g>
    <g
       style="fill:#000000;fill-opacity:1;stroke:none;opacity:1"
       id="g366"
       transform="matrix(1,0,0,-1,0,32)">
      <circle
         cx="28"
         cy="9.5799999"
         r="0.175"
         id="circle364" />
    </g>
    <g
       style="fill:#000000;fill-opacity:1;stroke:none;opacity:1"
       id="g370"
       transform="matrix(1,0,0,-1,0,32)">
      <circle
         cx="28"
         cy="12.12"
         r="0.175"
         id="circle368" />
    </g>
    <g
       style="fill:#000000;fill-opacity:1;stroke:none;opacity:1"
       id="g374"
       transform="matrix(1,0,0,-1,0,32)">
      <circle
         cx="28"
         cy="14.66"
         r="0.175"
         id="circle372" />
    </g>
    <g
       style="fill:#000000;fill-opacity:1;stroke:none;opacity:1"
       id="g378"
       transform="matrix(1,0,0,-1,0,32)">
      <circle
         cx="28"
         cy="17.200001"
         r="0.175"
         id="circle376" />
    </g>
    <g
       style="fill:#000000;fill-opacity:1;stroke:none;opacity:1"
       id="g382"
       transform="matrix(1,0,0,-1,0,32)">
      <circle
         cx="28"
         cy="19.74"
         r="0.175"
         id="circle380" />
    </g>
    <g
       style="fill:#000000;fill-opacity:1;stroke:none;opacity:1"
       id="g386"
       transform="matrix(1,0,0,-1,0,32)">
      <circle
         cx="28"
         cy="22.280001"
         r="0.175"
         id="circle384" />
    </g>
    <g
       style="fill:#000000;fill-opacity:1;stroke:none;opacity:1"
       id="g390"
       transform="matrix(1,0,0,-1,0,32)">
      <circle
         cx="28"
         cy="24.82"
         r="0.175"
         id="circle388" />
    </g>
  </g>
</svg>
