**ABCDEFGHIJKLMNOPQRSTUVWXYZabcdefghijklmnopqrstuvwxyz**************************
**PARASOLID !"#$%&'()*+,-./:;<=>?@[\]^_`{|}~0123456789**************************
**PART1;
MC=AMD64;
MC_MODEL=AMD64 Family 25 Model 80 Stepping 0, AuthenticAMD;
MC_ID=unknown;
OS=Windows_NT;
OS_RELEASE=unknown;
FRU=Parasolid Version 35.1, build 256,  4-22-2024;
APPL=SOLIDWORKS 2024-2024282;
SITE=;
USER=unknown;
FORMAT=text;
GUISE=transmit;
KEY=makeProjectedPlanarWire;
FILE=makeProjectedPlanarWire.x_t;
DATE=Sun Sep 21 20:58:41 2025;
**PART2;
SCH=SCH_3501256_35102;
USFLD_SIZE=0;
**PART3;
**END_OF_HEADER*****************************************************************
T51 : TRANSMIT FILE created by modeller version 350125623 SCH_3501256_35102_1300
6231 0 12 36 CCCI7 lattice222 0 CCCI4 mesh1006 0 I8 polyline1008 0 CCCCCCCDI5 ow
ner1040 0 CCCI16 boundary_lattice222 0 CCCI13 boundary_mesh1006 0 I17 boundary_p
olyline1008 0 CCCA16 index_map_offset0 0 1 dA9 index_map82 0 A17 node_id_index_m
ap82 0 A20 schema_embedding_map82 0 A5 child12 0 A14 lowest_node_id0 0 1 dA16 me
sh_offset_data206 0 Z1 99 2 3 0 0 0 0 0 0 0 1e3 1e-8 0 4 0 1 0 3 1 5 0 6 7 8 0 0
 9 10 11 0 0 0 0 0 0 0 81 255 2 2 82 12 1 0 0 0 0 13 0 70 11 CI9 list_type0 0 1
 uI10 notransmit0 0 1 lCCCDCCDI12 finger_index0 0 1 dI12 finger_block1012 0 CZ3
 0 4 T1 0 0 2 20 1 14 14 13 255 5 87 0 1 0 15 0 0 9 15 124 255 6 36 0 1 16 0 17
 +18 19 30 255 7 40 0 20 21 0 0 +-.005 .002 0 1 183697019872103e-30 0 29 255 8 7
8 0 11 22 0 -.0325 0 0 19 9 CCCCCCI5 frame230 0 CA5 owner12 0 Z9 86 0 1 0 0 5 0
 V0 16 255 10 56 0 184007172254112e-20 23 0 24 0 0 0 1 18 255 11 76 0 25 0 26 8
 184007172254112e-20 1 17 255 25 0 0 0 0 11 27 28 0 29 +18 26 73 0 30 11 31 22 1
84007172254112e-20 1 17 30 0 32 29 33 26 34 24 35 23 -18 31 70 0 33 26 36 37 184
007172254112e-20 1 29 22 75 0 26 37 8 .0325 119403062916867e-31 0 29 37 72 0 31
 38 22 .005 .0275 0 29 38 69 0 36 39 37 -.005 .0275 0 18 36 67 0 27 31 40 38 184
007172254112e-20 1 29 39 66 0 40 41 38 .0302277037506069 .002000000000000035 433
680868994202e-33 18 40 64 0 42 36 43 39 ?1 29 41 63 0 43 0 39 -.0302277037506069
 .002 -867361737988404e-33 18 43 61 0 44 40 0 41 ?1 17 44 0 45 46 46 43 42 47 0
 48 +15 255 45 7 0 44 15 32 17 46 0 45 44 44 40 48 20 0 0 +17 42 0 0 0 0 40 44 4
7 0 46 -16 47 29 0 ?44 20 0 21 0 0 1 17 48 0 0 0 0 43 46 20 0 0 -16 20 38 0 ?46
 28 47 7 0 0 1 16 28 41 0 184007172254112e-20 25 49 20 0 0 0 1 16 49 46 0 184007
172254112e-20 50 24 28 0 0 0 1 17 50 0 0 0 0 36 33 49 0 0 +16 24 51 0 1840071722
54112e-20 34 10 49 0 0 0 1 17 34 0 0 0 0 31 30 24 0 0 +17 33 0 32 30 27 31 50 49
 51 34 -15 32 8 0 27 15 0 17 27 0 32 33 29 36 25 28 52 50 -133 255 51 18 0 33 53
 54 0 +54 -.005 .0275 0 .005 .0275 0 0 1 137 255 53 11 0 1 52 51 55 +56 57 0 ?13
7 54 16 0 1 51 35 58 +56 59 0 ?133 35 23 0 30 54 60 0 +60 .005 .0275 0 .0325 119
403062916867e-31 0 0 1 141 255 58 51 58 58 54 50 255 56 27 0 15 0 61 62 +-.005 0
 0 0 0 1 1 0 0 134 255 59 0 0 0 0 0 0 +63 64 136 255 63 1 2 2 2 5 FFF1 65 66 67
 135 255 64 2 0 45 255 4 65 867361737988404e-33 .0275 .01 .0275 127 255 2 66 2 2
 128 255 2 67 0 1 14 255 15 1 68 ?0 0 45 5 56 -0 0 0 0 5 50 61 34 0 1 56 16 69 +
-.005 0 0 0 0 1 1 0 0 141 62 53 70 71 56 141 70 72 73 62 56 141 71 54 62 73 56 1
41 73 60 71 70 56 137 60 21 0 1 35 74 75 +56 76 0 ?133 74 28 0 29 60 72 0 +72 .0
325 119403062916867e-31 0 -.0325 0 0 0 1 141 75 35 75 75 60 134 76 0 0 0 0 0 0 +
77 78 136 77 2 17 2 9 5 FFF1 79 80 81 135 78 2 0 45 34 79 .01 .0275 .01270823589
673418 .0275 .01536498385544355 .02697159521108885 .018020925251535 .02644335084
0688 .02052379439003995 .0254066871440604 .02302564725262815 .024370444378888 .0
2527818140803905 .02286541433832 .02752980093462415 .02136099540673585 .02944543
648263005 .01944543648263005 .0313602941975291 .0175306553605184 .03286541433832
 .01527818140803905 .03436992333349335 .0130266220600138 .0354066871440604 .0105
2379439003998 .0364430299824919 .00802198297921635 .03697159521108885 .005364983
85544354 .0375 .002708791232139215 .0375 119403062916867e-31 127 9 80 3 2 2 2 2
 2 2 2 3 128 9 81 0 .125 .25 .375 .5 .625 .75 .875 1 17 29 0 32 27 30 11 23 10 7
4 0 -137 72 26 0 1 74 21 82 +56 83 0 ?38 12 CCCCCCCCCCCA17 intersection_data204
 0 Z21 37 0 47 72 7 0 +61 16 84 85 86 87 141 82 74 82 82 72 134 83 0 0 0 0 0 0 +
88 89 136 88 1 2 2 2 5 FFF1 90 91 92 135 89 2 0 45 4 90 .0375 119403062916867e-3
1 -.0275 0 127 2 91 2 2 128 2 92 0 1 60 255 16 35 0 1 61 6 93 +UF6 -.002 ?40 255
 12 84 .166617639307859 1.012715877216186 12 .00265305174944257 .337527801516473
 ??.03026012784929095 .001536641323900545 650521303491303e-33 .0283254170046783
 .00982478761176836 0 .02375601224449665 .01700523577592645 1517883041479705e-33
 .02284282438576015 .01796320553639185 -216840434497101e-33 .015890755682113 .02
28687006776009 650521303491303e-33 .00770681772092526 .02519685246042705 8673617
37988404e-33 -.00866456191584954 .02507409271848175 -433680868994202e-33 -.01256
033112429364 .02418021756146735 0 -.02013560710406715 .02030187501385865 -108420
2172485504e-33 -.0259999280391357 .0141347745419287 -867361737988404e-33 -.02949
270558516925 .00637248941820746 216840434497101e-33 -.0302601278492909 .00153664
132390165 -650521303491303e-33 41 3 CI8 term_use0 0 1 cCZ1 85 L?.030260127849290
95 .001536641323900545 650521303491303e-33 41 1 86 L?-.0302601278492909 .0015366
4132390166 -216840434497101e-33 204 2 17 INTERSECTION_DATA17 Intersection data7
 uv_type0 0 1 u6 values0 1 1 fT48 87 4 ??.0171391441810178 .0328239267789387 .03
33254170046783 .00982478761176836 .112183475033697 .03259038193077755 .028756012
24449665 .01700523577592645 .207075610679555 .03203981524486835 .027842824385760
15 .01796320553639185 .2217785822284875 .03192855496885235 .020890755682113 .022
8687006776009 .316992796008071 .0310766531513494 .01270681772092526 .02519685246
042705 .4129683080562195 .030058204607694 -.00366456191584954 .02507409271848175
 .597922354382368 .0301789997974088 -.00756033112429365 .02418021756146735 .6429
05609187851 .03066433510842 -.01513560710406715 .02030187501385865 .738409948207
955 .03160014312063955 -.0209999280391357 .0141347745419287 .833396405136978 .03
231282452708545 -.02449270558516925 .00637248941820746 .928311761344221 .0327326
2666687635 ??.98286085581897 .0328239267789387 141 93 21 93 93 16 17 23 0 0 0 0
 26 29 10 0 0 +141 69 21 69 69 61 81 1 68 91 94 15 0 0 0 0 95 80 7 CCCCCDI12 leg
al_owners0 16 1 lCZ1 94 96 97 9000 1 1 1 1 1 1 1 1 0 FFFFTFTFFFFFFFFF1 82 255 1
 95 555024841 79 255 14 97 SWEntUnchanged133 52 13 0 27 0 53 0 +53 -.0325 336777
869765522e-32 0 -.005 .0275 0 0 1 141 55 52 55 55 53 134 57 0 0 0 0 0 0 +98 99 1
36 98 2 17 2 9 5 FFF1 100 101 102 135 99 2 0 45 34 100 -.0275 336777869765522e-3
2 -.0275 .002708235896734185 -.02697159521108885 .00536498385544354 -.0264433508
40688 .00802092525153499 -.0254066871440604 .01052379439003996 -.024370444378897
4 .01302564725260538 -.02286541433832 .01527818140803905 -.0213609954067189 .017
5298009346582 -.01944543648263005 .01944543648263005 -.0175306553603979 .0213602
9419763255 -.01527818140803905 .02286541433832 -.01302662205992824 .024369923333
5276 -.01052379439003996 .0254066871440604 -.00802198297914062 .0264430299825244
5 -.00536498385544353 .02697159521108885 -.002708791232051455 .0275 173472347597
6805e-33 .0275 127 9 101 3 2 2 2 2 2 2 2 3 128 9 102 0 .125 .25 .375 .5 .625 .75
 .875 1 141 17 16 17 17 6 126 255 18 FF3 1 25 2 6 5 21 2 FFF9 3 103 104 105 106
 107 125 255 19 0 1 0 1 0 1 0 1 2 BBBBBBBB????0 0 0 0 45 150 103 .0325 119403062
916867e-31 0 .02125 780712334456438e-32 .025 .0325 .001799870779408095 0 .02125
 .00114537231416879 .025 .03214539056841165 .00540715709537383 0 .02102294902501
025 .0034310093700556 .025 .03055964722804955 .01062293573480142 0 .020030293808
68275 .0067212526150764 .025 .0279788047859021 .0154312479698606 0 .018414634009
63885 .00975039389983066 .025 .02450638481152275 .0196372724194776 0 .0162451225
4368575 .01241337884375126 .025 .0202860452514886 .0230738260003094 0 .013590912
32663064 .01460515306627112 .025 .01549332468373165 .02560988127439865 0 .010553
1099729986 .01624828185111875 .025 .01032585979844048 .02715692672999535 0 .0072
3282209731467 .01726533048202265 .025 .00677048021344595 .0275 0 .00491448927587
236 .0175 .025 .004107885534359915 .0275 0 .003163233923655925 .0175 .025 .00242
040278650665 .0275 0 .00193789643200469 .0175 .025 1301042606982604e-33 .0275 0
 -1517883041479705e-33 .0175 .025 -.002420402786506645 .0275 0 -.001937896432004
695 .0175 .025 -.004107885534359915 .0275 0 -.00316323392365593 .0175 .025 -.006
77048021344594 .0275 0 -.00491448927587236 .0175 .025 -.01032585979844046 .02715
692672999535 0 -.00723282209731468 .01726533048202265 .025 -.0154933246837317 .0
256098812743987 0 -.0105531099729986 .01624828185111875 .025 -.02028604525148855
 .02307382600030935 0 -.01359091232663066 .01460515306627112 .025 -.024506384811
5228 .01963727241947765 0 -.01624512254368575 .01241337884375126 .025 -.02797880
47859021 .0154312479698606 0 -.01841463400963885 .00975039389983065 .025 -.03055
96472280495 .01062293573480142 0 -.0200302938086827 .00672125261507639 .025 -.03
214539056841175 .00540715709537385 0 -.02102294902501025 .003431009370055595 .02
5 -.0325 .001799870779408095 0 -.02125 .001145372314168786 .025 -.0325 336777869
765522e-32 0 -.02125 214313189850787e-32 .025 127 21 104 4 1 1 1 1 1 1 1 2 1 1 1
 2 1 1 1 1 1 1 1 4 127 2 105 2 2 128 21 106 0 .0555076615481643 .111015323096328
6 .166522984644493 .222030646192657 .2775383077408215 .333045969288986 .38855363
083715 .4440612923853145 .472030646192657 .5 .527969353807342 .555938707614685 .
611446369162849 .666954030711014 .722461692259178 .777969353807342 .833477015355
507 .888984676903671 .944492338451836 1 128 2 107 0 1 74 4 CI16 index_map_offset
0 0 1 dCCZ20 14 2 0 0 2 68 0 0 0 0 0 0 0 0 0 0 0 0 0 0 0 0 0 0 80 2 12 108 109 9
000 0 0 0 0 3 5 0 0 0 FFTFTTTFFTFFFFFF10 10 98 255 8 13 86 97 99 105 97 100 111
 52 79 23 109 SWIMPLICITBODYNAME_ID_U1 0 
